<svg width="192" height="108" viewBox="0 0 192 108" fill="none" xmlns="http://www.w3.org/2000/svg">
<g clip-path="url(#clip0_3_530)">
<path d="M15.33 96.11H13.57" stroke="#004079" stroke-width="0.4038" stroke-miterlimit="10" stroke-linecap="round" stroke-linejoin="round"/>
<path d="M22.67 100.56H9.96997" stroke="#3498DB" stroke-width="0.4038" stroke-miterlimit="10" stroke-linecap="round" stroke-linejoin="round"/>
<path d="M11.31 96.12H4.20001" stroke="#004079" stroke-width="0.4038" stroke-miterlimit="10" stroke-linecap="round" stroke-linejoin="round"/>
<path d="M42 16.69H43.76" stroke="#004079" stroke-width="0.4038" stroke-miterlimit="10" stroke-linecap="round" stroke-linejoin="round"/>
<path d="M34.66 12.24H47.36" stroke="#3498DB" stroke-width="0.4038" stroke-miterlimit="10" stroke-linecap="round" stroke-linejoin="round"/>
<path d="M46.02 16.68H53.12" stroke="#004079" stroke-width="0.4038" stroke-miterlimit="10" stroke-linecap="round" stroke-linejoin="round"/>
<path d="M113.22 97.67H114.98" stroke="#004079" stroke-width="0.4038" stroke-miterlimit="10" stroke-linecap="round" stroke-linejoin="round"/>
<path d="M105.88 93.21H118.58" stroke="#3498DB" stroke-width="0.4038" stroke-miterlimit="10" stroke-linecap="round" stroke-linejoin="round"/>
<path d="M117.24 97.66H124.34" stroke="#004079" stroke-width="0.4038" stroke-miterlimit="10" stroke-linecap="round" stroke-linejoin="round"/>
<path d="M160.58 36.36H162.34" stroke="#004079" stroke-width="0.4038" stroke-miterlimit="10" stroke-linecap="round" stroke-linejoin="round"/>
<path d="M164.6 36.35H171.71" stroke="#004079" stroke-width="0.4038" stroke-miterlimit="10" stroke-linecap="round" stroke-linejoin="round"/>
<path d="M24.61 26.91H13.51C12.29 26.91 11.29 25.92 11.29 24.69C11.29 23.47 12.28 22.47 13.51 22.47H24.61C25.83 22.47 26.83 23.46 26.83 24.69C26.83 25.91 25.84 26.91 24.61 26.91Z" fill="#3498DB"/>
<path d="M28.48 31.34H17.38C16.16 31.34 15.16 30.35 15.16 29.12C15.16 27.9 16.15 26.9 17.38 26.9H28.48C29.7 26.9 30.7 27.89 30.7 29.12C30.69 30.34 29.7 31.34 28.48 31.34Z" fill="#3498DB"/>
<path d="M18.99 29.12H7.88998C6.66998 29.12 5.66998 28.13 5.66998 26.9C5.66998 25.68 6.65998 24.68 7.88998 24.68H18.99C20.21 24.68 21.21 25.67 21.21 26.9C21.21 28.13 20.21 29.12 18.99 29.12Z" fill="#3498DB"/>
<path d="M25.83 25.05V26.41" stroke="#163B2F" stroke-width="0.4038" stroke-miterlimit="10" stroke-linecap="round" stroke-linejoin="round"/>
<path d="M25.83 27.4V28.76" stroke="#163B2F" stroke-width="0.4038" stroke-miterlimit="10" stroke-linecap="round" stroke-linejoin="round"/>
<path d="M23.97 26.91H25.33" stroke="#163B2F" stroke-width="0.4038" stroke-miterlimit="10" stroke-linecap="round" stroke-linejoin="round"/>
<path d="M26.33 26.91H27.69" stroke="#163B2F" stroke-width="0.4038" stroke-miterlimit="10" stroke-linecap="round" stroke-linejoin="round"/>
<path d="M75.46 52.94V54.09" stroke="#163B2F" stroke-width="0.4038" stroke-miterlimit="10" stroke-linecap="round" stroke-linejoin="round"/>
<path d="M75.46 54.93V56.09" stroke="#163B2F" stroke-width="0.4038" stroke-miterlimit="10" stroke-linecap="round" stroke-linejoin="round"/>
<path d="M73.88 54.51H75.03" stroke="#163B2F" stroke-width="0.4038" stroke-miterlimit="10" stroke-linecap="round" stroke-linejoin="round"/>
<path d="M75.88 54.51H77.03" stroke="#163B2F" stroke-width="0.4038" stroke-miterlimit="10" stroke-linecap="round" stroke-linejoin="round"/>
<path d="M144.71 88.02H155.88C157.11 88.02 158.11 89.02 158.11 90.25C158.11 91.48 157.11 92.48 155.88 92.48H144.71C143.48 92.48 142.48 91.48 142.48 90.25C142.48 89.02 143.48 88.02 144.71 88.02Z" fill="#B4C7DD"/>
<path d="M150.46 91.24H168.24C170.2 91.24 171.79 92.83 171.79 94.79C171.79 96.75 170.2 98.34 168.24 98.34H150.46C148.5 98.34 146.91 96.75 146.91 94.79C146.91 92.83 148.5 91.24 150.46 91.24Z" fill="#3498DB"/>
<path d="M156.71 89.26L158 90.54" stroke="#163B2F" stroke-width="0.4038" stroke-miterlimit="10" stroke-linecap="round" stroke-linejoin="round"/>
<path d="M158.94 91.48L160.22 92.77" stroke="#163B2F" stroke-width="0.4038" stroke-miterlimit="10" stroke-linecap="round" stroke-linejoin="round"/>
<path d="M156.71 92.77L158 91.48" stroke="#163B2F" stroke-width="0.4038" stroke-miterlimit="10" stroke-linecap="round" stroke-linejoin="round"/>
<path d="M158.94 90.54L160.22 89.26" stroke="#163B2F" stroke-width="0.4038" stroke-miterlimit="10" stroke-linecap="round" stroke-linejoin="round"/>
<path d="M164.31 6.59H176.03C177.32 6.59 178.37 7.64 178.37 8.93C178.37 10.22 177.32 11.27 176.03 11.27H164.31C163.02 11.27 161.97 10.22 161.97 8.93C161.97 7.64 163.02 6.59 164.31 6.59Z" fill="#B4C7DD"/>
<path d="M170.34 9.98H182.93C184.98 9.98 186.65 11.65 186.65 13.7C186.65 15.75 184.98 17.42 182.93 17.42H170.34C168.29 17.42 166.62 15.75 166.62 13.7C166.62 11.64 168.28 9.98 170.34 9.98Z" fill="#B4C7DD"/>
<path d="M153.24 31.9H165.94" stroke="#3498DB" stroke-width="0.4038" stroke-miterlimit="10" stroke-linecap="round" stroke-linejoin="round"/>
<path d="M176.9 7.89999L178.25 9.23999" stroke="#163B2F" stroke-width="0.4038" stroke-miterlimit="10" stroke-linecap="round" stroke-linejoin="round"/>
<path d="M179.23 10.23L180.58 11.57" stroke="#163B2F" stroke-width="0.4038" stroke-miterlimit="10" stroke-linecap="round" stroke-linejoin="round"/>
<path d="M176.9 11.57L178.25 10.23" stroke="#163B2F" stroke-width="0.4038" stroke-miterlimit="10" stroke-linecap="round" stroke-linejoin="round"/>
<path d="M179.23 9.23999L180.58 7.89999" stroke="#163B2F" stroke-width="0.4038" stroke-miterlimit="10" stroke-linecap="round" stroke-linejoin="round"/>
<path d="M69.86 87.88L71.2 89.22" stroke="#163B2F" stroke-width="0.4038" stroke-miterlimit="10" stroke-linecap="round" stroke-linejoin="round"/>
<path d="M72.19 90.21L73.53 91.55" stroke="#163B2F" stroke-width="0.4038" stroke-miterlimit="10" stroke-linecap="round" stroke-linejoin="round"/>
<path d="M69.86 91.55L71.2 90.21" stroke="#163B2F" stroke-width="0.4038" stroke-miterlimit="10" stroke-linecap="round" stroke-linejoin="round"/>
<path d="M72.19 89.22L73.53 87.88" stroke="#163B2F" stroke-width="0.4038" stroke-miterlimit="10" stroke-linecap="round" stroke-linejoin="round"/>
<path d="M34.79 67.91C34.79 67.91 38.77 67.06 43.04 68.69C47.32 70.31 51.12 72.71 53.77 72.74C56.42 72.77 60.53 73.14 60.53 73.14L34.79 67.91Z" fill="#B4C7DD"/>
<path d="M24.32 80.2L23.68 66.12C23.9 66.09 29.6 68.99 31.42 68.82C33.24 68.64 33.92 68.26 35.67 67.57C37.42 66.89 38.69 65.91 44.55 65.14C50.41 64.37 54.1 60.62 54.1 60.62C54.1 60.62 57.22 58.13 59.29 58.14C61.36 58.15 61.02 61.07 60.25 61.91C59.48 62.75 51.75 68.68 51.75 68.68L52.66 70.87L24.32 80.2Z" fill="#B4C7DD"/>
<path d="M23.36 67.64C23.58 67.61 29.28 70.51 31.1 70.34C32.92 70.16 33.6 69.78 35.35 69.09C37.1 68.4 38.37 67.43 44.23 66.66C50.09 65.89 53.78 62.14 53.78 62.14C53.78 62.14 56.9 59.65 58.97 59.66C61.04 59.67 60.7 62.59 59.93 63.43C59.16 64.27 51.43 70.2 51.43 70.2" stroke="#0F172A" stroke-width="0.4038" stroke-miterlimit="10" stroke-linecap="round" stroke-linejoin="round"/>
<path d="M118.47 66.4057C117.569 79.5741 106.172 89.529 93.0037 88.628C92.1011 88.5688 91.2065 88.4492 90.3105 88.2897C84.0781 87.1518 78.5529 83.5784 74.9625 78.3579" stroke="#0F172A" stroke-width="0.4038" stroke-miterlimit="10" stroke-linecap="round" stroke-linejoin="round"/>
<path d="M121.927 73.0115L118.58 66.1018L112.045 69.887" stroke="#0F172A" stroke-width="0.4038" stroke-miterlimit="10" stroke-linecap="round" stroke-linejoin="round"/>
<path d="M69.9 40.2885C70.791 27.1204 82.1978 17.1652 95.3662 18.0662C96.2688 18.1254 97.1634 18.245 98.0594 18.4045C104.292 19.5424 109.817 23.1158 113.407 28.3363" stroke="#0F172A" stroke-width="0.4038" stroke-miterlimit="10" stroke-linecap="round" stroke-linejoin="round"/>
<path d="M66.4422 33.6727L69.79 40.5824L76.3246 36.7971" stroke="#0F172A" stroke-width="0.4038" stroke-miterlimit="10" stroke-linecap="round" stroke-linejoin="round"/>
<path d="M164.92 50.74C164.7 50.71 159 53.61 157.18 53.44C155.36 53.26 154.68 52.88 152.93 52.19C151.18 51.5 149.91 50.53 144.05 49.76C138.19 48.99 134.5 45.24 134.5 45.24C134.5 45.24 131.38 42.75 129.31 42.76C127.24 42.77 127.58 45.69 128.35 46.53C129.12 47.37 136.86 53.3 136.86 53.3" stroke="#0F172A" stroke-width="0.4038" stroke-miterlimit="10" stroke-linecap="round" stroke-linejoin="round"/>
<path d="M52.33 66.4071C60.2111 66.4071 66.6 60.0182 66.6 52.1371C66.6 44.256 60.2111 37.8671 52.33 37.8671C44.4489 37.8671 38.06 44.256 38.06 52.1371C38.06 60.0182 44.4489 66.4071 52.33 66.4071Z" fill="white"/>
<path d="M54.81 66.4071C62.6911 66.4071 69.08 60.0182 69.08 52.1371C69.08 44.256 62.6911 37.8671 54.81 37.8671C46.9289 37.8671 40.54 44.256 40.54 52.1371C40.54 60.0182 46.9289 66.4071 54.81 66.4071Z" fill="#3498DB"/>
<path d="M52.27 65.9271C60.1511 65.9271 66.54 59.5382 66.54 51.6571C66.54 43.776 60.1511 37.3871 52.27 37.3871C44.3889 37.3871 38 43.776 38 51.6571C38 59.5382 44.3889 65.9271 52.27 65.9271Z" stroke="#004079" stroke-width="0.4038" stroke-miterlimit="10" stroke-linecap="round" stroke-linejoin="round"/>
<path d="M130.94 49.4471C138.821 49.4471 145.21 43.0582 145.21 35.1771C145.21 27.296 138.821 20.9071 130.94 20.9071C123.059 20.9071 116.67 27.296 116.67 35.1771C116.67 43.0582 123.059 49.4471 130.94 49.4471Z" fill="white"/>
<path d="M133.41 49.4471C141.291 49.4471 147.68 43.0582 147.68 35.1771C147.68 27.296 141.291 20.9071 133.41 20.9071C125.529 20.9071 119.14 27.296 119.14 35.1771C119.14 43.0582 125.529 49.4471 133.41 49.4471Z" fill="#3498DB"/>
<path d="M130.88 48.9771C138.761 48.9771 145.15 42.5882 145.15 34.7071C145.15 26.826 138.761 20.4371 130.88 20.4371C122.999 20.4371 116.61 26.826 116.61 34.7071C116.61 42.5882 122.999 48.9771 130.88 48.9771Z" stroke="#004079" stroke-width="0.4038" stroke-miterlimit="10" stroke-linecap="round" stroke-linejoin="round"/>
<g clip-path="url(#clip1_3_530)">
<path d="M130.622 41.4C129.04 41.4 127.654 40.0192 126.901 37.9648H131.879V35.1179H126.323C126.309 34.8876 126.302 34.6569 126.302 34.4213C126.302 34.1879 126.309 33.9543 126.323 33.7271H131.879V30.8796H126.901C127.654 28.8254 129.04 27.445 130.622 27.445C132.133 27.445 133.557 28.7577 134.337 30.8693L136.317 29.6414C135.169 26.5291 132.987 24.5971 130.622 24.5971C128.843 24.5971 127.184 25.6509 125.948 27.5669C125.327 28.5308 124.852 29.6555 124.54 30.8796H122.153V33.7271H124.122C124.111 33.9558 124.106 34.1894 124.106 34.4212C124.106 34.6554 124.111 34.886 124.122 35.1178H122.153V37.9648H124.54C124.852 39.1887 125.327 40.3122 125.949 41.2752C127.184 43.1913 128.844 44.2471 130.622 44.2471C132.987 44.2471 135.169 42.3153 136.317 39.2031L134.337 37.9729C133.557 40.0872 132.133 41.4 130.622 41.4Z" fill="#004079"/>
</g>
<path d="M68.8 66L69.19 64.95C69.64 62.73 72.8 61.22 73.55 61.59C74.3 61.96 73.82 63.54 73.82 63.54L70.99 71.55C70.99 71.55 68.64 77.63 67.53 78.44C66.42 79.25 61.34 80.79 58.88 82.34C56.42 83.89 54.37 84.32 53.34 84.32C52.31 84.32 42.77 82.03 41.52 82.15C40.27 82.27 23.58 81.15 23.58 81.15L50.34 72.36L54.16 75.01L68.65 73.65L68.8 66Z" fill="white"/>
<path d="M49.05 66.93C49.05 66.93 50.47 67.94 52.05 70.89C53.63 73.84 55.31 73.69 55.31 73.69L60.53 74.15L65.1 70.94C65.1 70.94 68.06 66.18 69.31 65.64C70.56 65.1 72.16 64.95 71.81 66.11C71.45 67.26 68.72 71.55 68.49 72.02C68.26 72.49 65.27 77.55 63.67 78.28C62.08 79.02 55.22 80.62 55.22 80.62L49.05 66.93Z" fill="white"/>
<path d="M71.57 69.9C71.57 69.9 74.57 67.07 75.2 66.78C75.83 66.49 77.92 65.11 79.51 66.19C79.51 66.19 80.29 66.57 77.63 69.07C74.97 71.57 72.16 74.23 72.16 74.23L68.65 76.81L71.57 69.9Z" fill="white"/>
<path d="M59.59 81.94C59.59 81.94 66.67 80.73 67.51 80.41C68.35 80.09 76.67 75.17 77.36 74.2C78.05 73.23 77.76 72.59 77.13 72.52C76.5 72.45 75.71 71.86 74.23 72.29L59.59 81.94Z" fill="white"/>
<circle cx="120" cy="56.9999" r="1" fill="white"/>
<path d="M119.777 49.5502L119.387 48.4803C118.937 46.2184 115.777 44.6798 115.027 45.0568C114.277 45.4338 114.757 47.0437 114.757 47.0437L117.587 55.2051C117.587 55.2051 119.937 61.4001 121.047 62.2254C122.157 63.0507 127.238 64.6199 129.698 66.1992C132.158 67.7785 134.208 68.2166 135.238 68.2166C136.268 68.2166 145.809 65.8833 147.059 66.0056C148.309 66.1278 165 64.9867 165 64.9867L138.238 56.0305L134.418 58.7306L119.927 57.3449L119.777 49.5502Z" fill="white"/>
<path d="M139.528 50.4978C139.528 50.4978 138.108 51.5269 136.528 54.5326C134.948 57.5384 133.268 57.3856 133.268 57.3856L128.048 57.8543L123.477 54.5836C123.477 54.5836 120.517 49.7336 119.267 49.1834C118.017 48.6332 116.417 48.4803 116.767 49.6623C117.127 50.834 119.857 55.2051 120.087 55.684C120.317 56.1629 123.307 61.3186 124.908 62.0624C126.498 62.8164 133.358 64.4466 133.358 64.4466L139.528 50.4978Z" fill="white"/>
<path d="M117.007 53.5239C117.007 53.5239 114.007 50.6404 113.377 50.3449C112.747 50.0495 110.657 48.6434 109.067 49.7438C109.067 49.7438 108.287 50.131 110.947 52.6783C113.607 55.2255 116.417 57.9358 116.417 57.9358L119.927 60.5646L117.007 53.5239Z" fill="white"/>
<path d="M128.988 65.7916C128.988 65.7916 121.907 64.5587 121.067 64.2327C120.227 63.9066 111.907 58.8936 111.217 57.9052C110.527 56.9169 110.817 56.2648 111.447 56.1935C112.077 56.1221 112.867 55.521 114.347 55.9591L128.988 65.7916Z" fill="white"/>
<path d="M68.8 65L69.19 63.95C69.64 61.73 72.8 60.22 73.55 60.59C74.3 60.96 73.82 62.54 73.82 62.54L70.99 70.55C70.99 70.55 68.64 76.63 67.53 77.44C66.42 78.25 61.34 79.79 58.88 81.34C56.42 82.89 54.37 83.32 53.34 83.32C52.31 83.32 42.77 81.03 41.52 81.15C40.27 81.27 23.58 80.15 23.58 80.15L50.34 71.36L54.16 74.01L68.65 72.65L68.8 65Z" fill="#B4C7DD"/>
<path d="M49.05 65.93C49.05 65.93 50.47 66.94 52.05 69.89C53.63 72.84 55.31 72.69 55.31 72.69L60.53 73.15L65.1 69.94C65.1 69.94 68.06 65.18 69.31 64.64C70.56 64.1 72.16 63.95 71.81 65.11C71.45 66.26 68.72 70.55 68.49 71.02C68.26 71.49 65.27 76.55 63.67 77.28C62.08 78.02 55.22 79.62 55.22 79.62L49.05 65.93Z" fill="#B4C7DD"/>
<path d="M71.57 68.9C71.57 68.9 74.57 66.07 75.2 65.78C75.83 65.49 77.92 64.11 79.51 65.19C79.51 65.19 80.29 65.57 77.63 68.07C74.97 70.57 72.16 73.23 72.16 73.23L68.65 75.81L71.57 68.9Z" fill="#B4C7DD"/>
<path d="M59.59 80.94C59.59 80.94 66.67 79.73 67.51 79.41C68.35 79.09 76.67 74.17 77.36 73.2C78.05 72.23 77.76 71.59 77.13 71.52C76.5 71.45 75.71 70.86 74.23 71.29L59.59 80.94Z" fill="#B4C7DD"/>
<circle cx="67.5" cy="71.5" r="2.5" fill="#B4C7DD"/>
<path d="M23.28 81.67C23.28 81.67 39.97 82.8 41.22 82.67C42.47 82.55 52.01 84.84 53.04 84.84C54.07 84.84 56.12 84.42 58.58 82.86C61.04 81.3 66.12 79.76 67.23 78.96C68.34 78.15 70.69 72.07 70.69 72.07L73.52 64.06C73.52 64.06 74.01 62.48 73.25 62.11C72.5 61.74 69.33 63.26 68.89 65.47L68.5 66.52" stroke="#0F172A" stroke-width="0.4038" stroke-miterlimit="10" stroke-linecap="round" stroke-linejoin="round"/>
<path d="M47.69 67.09C47.69 67.09 50.16 68.45 51.75 71.4C53.33 74.35 55.01 74.2 55.01 74.2L60.23 74.66L64.8 71.45C64.8 71.45 67.76 66.69 69.01 66.15C70.26 65.61 71.86 65.46 71.51 66.62C71.15 67.77 68.42 72.06 68.19 72.53C67.96 73 64.97 78.06 63.37 78.79C61.78 79.53 54.92 81.13 54.92 81.13" stroke="#0F172A" stroke-width="0.4038" stroke-miterlimit="10" stroke-linecap="round" stroke-linejoin="round"/>
<path d="M34.48 69.43C34.48 69.43 38.46 68.58 42.73 70.21C47.01 71.83 50.81 74.23 53.46 74.26C56.11 74.29 60.22 74.66 60.22 74.66" stroke="#0F172A" stroke-width="0.4038" stroke-miterlimit="10" stroke-linecap="round" stroke-linejoin="round"/>
<path d="M71.26 70.42C71.26 70.42 74.26 67.59 74.89 67.3C75.52 67.01 77.61 65.63 79.2 66.71C79.2 66.71 79.98 67.09 77.32 69.59C74.66 72.09 71.85 74.75 71.85 74.75L68.34 77.33" stroke="#0F172A" stroke-width="0.4038" stroke-miterlimit="10" stroke-linecap="round" stroke-linejoin="round"/>
<path d="M59.28 82.45C59.28 82.45 66.36 81.24 67.2 80.92C68.04 80.6 76.36 75.68 77.05 74.71C77.74 73.74 77.45 73.1 76.82 73.03C76.19 72.96 75.4 72.37 73.92 72.8" stroke="#0F172A" stroke-width="0.4038" stroke-miterlimit="10" stroke-linecap="round" stroke-linejoin="round"/>
<path d="M165 64.78C165 64.78 148.31 65.91 147.06 65.78C145.81 65.65 136.27 67.95 135.24 67.95C134.21 67.95 132.16 67.53 129.7 65.97C127.24 64.41 122.16 62.87 121.05 62.07C119.94 61.27 117.59 55.18 117.59 55.18L114.76 47.17C114.76 47.17 114.27 45.59 115.03 45.22C115.78 44.85 118.95 46.37 119.39 48.58L119.78 49.63" stroke="#0F172A" stroke-width="0.4038" stroke-miterlimit="10" stroke-linecap="round" stroke-linejoin="round"/>
<path d="M140.59 50.2C140.59 50.2 138.12 51.56 136.53 54.51C134.95 57.46 133.27 57.31 133.27 57.31L128.05 57.77L123.48 54.56C123.48 54.56 120.52 49.8 119.27 49.26C118.02 48.72 116.42 48.57 116.77 49.73C117.13 50.88 119.86 55.17 120.09 55.64C120.32 56.11 123.31 61.17 124.91 61.9C126.5 62.64 133.36 64.24 133.36 64.24" stroke="#0F172A" stroke-width="0.4038" stroke-miterlimit="10" stroke-linecap="round" stroke-linejoin="round"/>
<path d="M153.8 52.54C153.8 52.54 149.82 51.69 145.55 53.32C141.27 54.94 137.47 57.34 134.82 57.37C132.17 57.4 128.06 57.77 128.06 57.77" stroke="#0F172A" stroke-width="0.4038" stroke-miterlimit="10" stroke-linecap="round" stroke-linejoin="round"/>
<path d="M117.02 53.53C117.02 53.53 114.02 50.7 113.39 50.41C112.76 50.12 110.67 48.74 109.08 49.82C109.08 49.82 108.3 50.2 110.96 52.7C113.62 55.2 116.43 57.86 116.43 57.86L119.94 60.44" stroke="#0F172A" stroke-width="0.4038" stroke-miterlimit="10" stroke-linecap="round" stroke-linejoin="round"/>
<path d="M129 65.56C129 65.56 121.92 64.35 121.08 64.03C120.24 63.71 111.92 58.79 111.23 57.82C110.54 56.85 110.83 56.21 111.46 56.14C112.09 56.07 112.88 55.48 114.36 55.91" stroke="#0F172A" stroke-width="0.4038" stroke-miterlimit="10" stroke-linecap="round" stroke-linejoin="round"/>
<path d="M106.6 64.28L108.96 65.62" stroke="#0F172A" stroke-width="0.4038" stroke-miterlimit="10" stroke-linecap="round" stroke-linejoin="round"/>
<path d="M111.33 64.28L109.94 65.07" stroke="#0F172A" stroke-width="0.4038" stroke-miterlimit="10" stroke-linecap="round" stroke-linejoin="round"/>
<path d="M108.96 65.62V68.32" stroke="#0F172A" stroke-width="0.4038" stroke-miterlimit="10" stroke-linecap="round" stroke-linejoin="round"/>
<path d="M85.62 36.55C87.5695 36.55 89.15 34.9696 89.15 33.02C89.15 31.0704 87.5695 29.49 85.62 29.49C83.6704 29.49 82.09 31.0704 82.09 33.02C82.09 34.9696 83.6704 36.55 85.62 36.55Z" fill="#3498DB"/>
<path d="M48.187 55.586C47.9183 55.586 47.6887 55.495 47.498 55.313C47.316 55.131 47.225 54.9057 47.225 54.637C47.225 54.3683 47.316 54.1387 47.498 53.948C47.6887 53.7573 47.9183 53.662 48.187 53.662C48.447 53.662 48.668 53.7573 48.85 53.948C49.0407 54.1387 49.136 54.3683 49.136 54.637C49.136 54.9057 49.0407 55.131 48.85 55.313C48.668 55.495 48.447 55.586 48.187 55.586ZM47.901 59.122C47.2423 59.122 46.627 59.0397 46.055 58.875C45.483 58.7103 44.9847 58.4633 44.56 58.134C44.1353 57.8047 43.8017 57.3973 43.559 56.912C43.325 56.4267 43.208 55.8677 43.208 55.235C43.208 54.6457 43.299 54.0997 43.481 53.597C43.6717 53.0943 43.9317 52.6393 44.261 52.232C44.599 51.8247 44.9977 51.4607 45.457 51.14C45.9163 50.8193 46.419 50.5463 46.965 50.321C47.5197 50.0957 48.1003 49.918 48.707 49.788L48.733 50.022C48.525 49.9613 48.2953 49.892 48.044 49.814C47.7927 49.736 47.5197 49.6623 47.225 49.593C46.939 49.5237 46.6313 49.4673 46.302 49.424C45.9813 49.372 45.6433 49.346 45.288 49.346C44.976 49.346 44.6813 49.3677 44.404 49.411C44.1353 49.4457 43.897 49.489 43.689 49.541L43.416 47.773C43.6673 47.695 43.936 47.63 44.222 47.578C44.5167 47.526 44.82 47.5 45.132 47.5C45.6 47.5 46.0333 47.5433 46.432 47.63C46.8307 47.708 47.2033 47.8077 47.55 47.929C47.9053 48.0503 48.2433 48.176 48.564 48.306C48.8933 48.4273 49.214 48.5313 49.526 48.618C49.838 48.696 50.1587 48.735 50.488 48.735H51.008L51.177 50.685C50.8477 50.685 50.4663 50.7283 50.033 50.815C49.6083 50.9017 49.1663 51.0273 48.707 51.192C48.2477 51.3567 47.797 51.5603 47.355 51.803C46.9217 52.0457 46.5273 52.3273 46.172 52.648C45.8253 52.9687 45.548 53.324 45.34 53.714C45.132 54.104 45.028 54.5287 45.028 54.988C45.028 55.404 45.106 55.7593 45.262 56.054C45.418 56.3487 45.6347 56.587 45.912 56.769C46.1893 56.951 46.51 57.0853 46.874 57.172C47.2467 57.2587 47.6453 57.302 48.07 57.302C48.5467 57.302 49.0277 57.25 49.513 57.146C50.007 57.042 50.501 56.8947 50.995 56.704L51.528 58.29C50.8953 58.5847 50.267 58.797 49.643 58.927C49.019 59.057 48.4383 59.122 47.901 59.122ZM53.9561 54.1477C53.599 54.1477 53.2928 54.0231 53.0374 53.7738C52.785 53.5214 52.6604 53.2152 52.6634 52.8551C52.6604 52.5043 52.785 52.2042 53.0374 51.9549C53.2928 51.7056 53.599 51.581 53.9561 51.581C54.2946 51.581 54.5931 51.7056 54.8517 51.9549C55.1133 52.2042 55.2456 52.5043 55.2487 52.8551C55.2456 53.0952 55.1825 53.3137 55.0594 53.5107C54.9394 53.7045 54.7824 53.86 54.5885 53.9769C54.3946 54.0908 54.1838 54.1477 53.9561 54.1477ZM56.4423 53.48L57.0793 51.829C57.4 51.9677 57.7076 52.0717 58.0023 52.141C58.297 52.2103 58.5916 52.245 58.8863 52.245C59.1896 52.245 59.441 52.219 59.6403 52.167C59.8483 52.1063 60.0043 52.0197 60.1083 51.907C60.2123 51.7943 60.2643 51.66 60.2643 51.504C60.2643 51.3567 60.2166 51.153 60.1213 50.893C60.0346 50.633 59.8743 50.295 59.6403 49.879C59.4063 49.4543 59.064 48.93 58.6133 48.306L60.1603 47.279C60.5763 47.8683 60.936 48.4447 61.2393 49.008C61.5426 49.5627 61.7766 50.0827 61.9413 50.568C62.1146 51.0447 62.2013 51.465 62.2013 51.829C62.2013 52.2797 62.08 52.674 61.8373 53.012C61.6033 53.3413 61.2523 53.6013 60.7843 53.792C60.325 53.9827 59.7573 54.078 59.0813 54.078C58.83 54.078 58.5483 54.0563 58.2363 54.013C57.9243 53.9697 57.608 53.9047 57.2873 53.818C56.9753 53.7313 56.6936 53.6187 56.4423 53.48Z" fill="#004079"/>
</g>
<defs>
<clipPath id="clip0_3_530">
<rect width="192" height="108" fill="white"/>
</clipPath>
<clipPath id="clip1_3_530">
<rect width="15.15" height="19.65" fill="white" transform="translate(121.66 24.5971)"/>
</clipPath>
</defs>
</svg>
