<?xml version="1.0"?><svg version="1.2" baseProfile="tiny-ps" viewBox="0 0 256 256" xmlns="http://www.w3.org/2000/svg" xmlns:xlink="http://www.w3.org/1999/xlink"><title>Miloua Mokhtar</title><g><g fill="#e9fdbe" transform="matrix(.1 0 0 -.1 0 256)"><path d="m430 2544-65-14-81-39-80-40-53-55-52-56-34-72-35-73-15-73-15-73V511l15-73 15-73 40-81 39-80 55-53 56-52 72-34 73-35 73-15 73-15h1538l73 15 73 15 81 40 80 39 53 55 52 56 34 72 35 73 15 73 15 73v1538l-15 73-15 73-35 73-34 72-52 56-53 55-80 39-81 40-73 15-73 15-777-1-777-1-65-14z"/></g><g fill="#c7ff42" transform="matrix(.1 0 0 -.1 0 256)"><path d="M495 2549c-81-12-159-36-219-66l-50-25-58-56-58-55-34-69-35-68-18-77-18-78V505l18-78 18-77 35-68 34-69 59-56 60-57 62-30c35-16 97-38 139-47l75-18h1550l75 18c42 9 104 31 139 47l62 30 60 57 59 56 34 69 35 68 18 77 18 78v1550l-18 78-18 77-35 68-34 69-58 55-58 56-53 26c-29 15-87 37-129 49l-77 21-760 2-760 2-60-9z"/></g><g fill="#bbf838" transform="matrix(.1 0 0 -.1 0 256)"><path d="M526 2549c-97-10-172-32-250-71l-59-30-54-54-54-53-34-74-35-73-18-74-17-75V515l17-75 18-74 35-73 34-74 55-55 55-55 74-34 73-35 74-18 75-17h1530l75 17 74 18 73 35 74 34 55 55 55 55 34 74 35 73 18 74 17 75v1530l-17 75-18 74-35 73-34 74-55 55-55 55-73 34c-41 19-105 43-143 52l-70 16-725 3-725 2-79-9zm127-516c-67-2-179-2-250 0l-128 3h250c138 0 195-2 128-3zm852-3-251-5-233-242c-128-134-236-243-239-243h-7l5 242 5 243 5-234 5-233 229 241 230 241 250-2 251-2-250-6zm718-3c-11-6-119-119-238-249l-216-238-12 1-12 1 11 4c6 3 112 115 234 249l223 245h32l-22-13zM267 918c-1-205-2-40-2 367s1 575 2 373c2-201 2-534 0-740zm1990 4c-1-202-2-36-2 368s1 570 2 367c2-202 2-532 0-735zM758 793l-2-248-6 237-5 237-218-240-218-239-17 1-17 1 16 5c8 2 116 114 239 248 122 135 224 245 226 245s3-111 2-247zm980 0-2-248-6 237-5 237-229-239-228-240-252 2-251 3 250 2 251 3 233 245c128 135 235 245 237 245s3-111 2-247zm385-250c-67-2-179-2-250 0l-128 3h250c138 0 195-2 128-3z"/></g><g fill="#90c129" transform="matrix(.1 0 0 -.1 0 256)"><path d="m277 2023-7-6V549l19 3 18 3 224 245 224 244 3-247 2-247 253 1h252l235 246 235 247 3-247 2-247h500v1480h-10c-5 0-109-109-232-242-122-134-228-244-235-246l-13-3v491h-488l-233-242c-128-134-239-244-246-246l-13-3v491H283l-6-7z"/></g><g fill="#2c3f07" transform="matrix(.1 0 0 -.1 0 256)"><path d="M280 1285V550h9c5 0 109 109 231 243 122 133 228 243 236 245l14 3V550h488l233 245c129 135 240 245 247 245h12V550h490v1470h-27l-223-245c-122-135-227-245-231-245h-9v490h-496l-233-245c-129-135-238-245-242-245h-9v490H280v-735z"/></g><g fill="#010200" transform="matrix(.1 0 0 -.1 0 256)"><path d="M280 1290V560h25l223 245 224 245 9-5 9-6V560h248l247 1 233 244 234 245 9-6 9-5V560h490v1460l-12-1c-7 0-112-110-233-244s-226-244-232-244l-13-1v490l-247-1-248-1-230-243c-126-134-236-243-242-244l-13-1v490H280v-730z"/></g></g></svg>