<?xml version="1.0" standalone="no"?>
<!DOCTYPE svg PUBLIC "-//W3C//DTD SVG 20010904//EN"
 "http://www.w3.org/TR/2001/REC-SVG-20010904/DTD/svg10.dtd">
<svg version="1.0" xmlns="http://www.w3.org/2000/svg"
 width="760.000000pt" height="571.000000pt" viewBox="0 0 760.000000 571.000000"
 preserveAspectRatio="xMidYMid meet">

<g transform="translate(0.000000,571.000000) scale(0.100000,-0.100000)"
fill="#000000" stroke="none">
<path d="M357 5393 c-11 -10 -8 -43 3 -43 6 0 10 11 10 25 0 26 -2 29 -13 18z"/>
<path d="M410 5393 c-1 -5 0 -83 0 -175 1 -163 0 -168 -20 -168 -19 0 -20 6
-21 128 -1 70 -1 131 0 135 1 5 -3 6 -9 2 -6 -3 -9 -23 -8 -43 1 -20 1 -78 0
-128 l-2 -91 -29 5 c-36 5 -40 28 -36 205 2 74 0 127 -6 127 -15 0 -12 -325 4
-338 6 -6 70 -15 141 -21 71 -6 153 -14 182 -17 l54 -7 0 197 c0 108 -3 196
-7 196 -7 0 -11 -126 -13 -332 0 -33 -3 -38 -24 -38 -24 0 -24 0 -24 118 0
199 -2 242 -9 242 -5 0 -7 -82 -5 -181 l3 -181 -38 7 c-21 4 -40 8 -41 10 -2
2 -4 80 -4 174 0 94 -4 174 -9 177 -5 3 -9 -70 -9 -170 l0 -176 -30 0 -31 0 3
175 c2 96 0 175 -4 175 -5 0 -8 -3 -8 -7z"/>
<path d="M710 5201 l0 -198 93 -6 c161 -11 566 -47 867 -77 366 -37 532 -52
660 -60 80 -5 210 -17 290 -25 80 -9 181 -17 225 -18 l80 -2 0 240 0 240 -50
7 c-161 24 -382 62 -458 79 -94 20 -154 25 -127 10 8 -5 33 -11 55 -15 22 -3
90 -15 150 -26 157 -29 395 -70 406 -70 6 0 8 -90 7 -227 -3 -222 -4 -228 -23
-225 -11 2 -21 5 -23 7 -1 1 -4 92 -6 201 -3 186 -5 199 -22 200 -26 1 -115
14 -135 20 -9 3 -19 14 -22 24 -3 12 -14 20 -25 20 -11 0 -27 3 -36 6 -13 5
-16 -1 -16 -27 0 -52 -10 -60 -63 -53 -27 4 -47 12 -47 19 0 7 -17 15 -37 19
-62 10 -73 8 -73 -15 0 -19 -4 -20 -42 -14 -98 14 -95 13 -94 53 l1 37 -80 12
c-137 21 -205 35 -205 44 0 5 -4 9 -10 9 -6 0 -10 -87 -10 -241 l0 -241 -31 6
c-17 3 -44 6 -60 6 l-29 0 0 240 c0 171 -3 240 -11 240 -8 0 -10 -65 -7 -235
3 -130 2 -237 -2 -240 -3 -2 -16 -1 -28 2 -22 5 -22 9 -23 197 -1 163 -3 181
-11 121 -5 -38 -6 -119 -3 -180 5 -100 -3 -150 -20 -133 -4 4 -8 108 -8 232
-1 124 -5 226 -9 226 -5 0 -8 -103 -8 -230 0 -221 -1 -230 -19 -230 -11 0 -22
4 -25 9 -3 5 -9 107 -12 227 -3 120 -7 221 -10 223 -2 2 -4 -98 -4 -222 l0
-227 -25 0 c-14 0 -25 6 -25 13 -1 6 -2 85 -4 175 -1 89 -6 165 -9 169 -4 3
-7 -73 -7 -171 l0 -177 -37 3 -38 3 -6 60 c-4 33 -7 131 -8 218 -1 105 -5 157
-12 157 -7 0 -9 -63 -3 -215 6 -188 5 -215 -8 -215 -9 0 -15 8 -15 18 1 254
-5 412 -14 412 -8 0 -10 -59 -7 -210 3 -116 2 -212 -1 -214 -3 -2 -23 -1 -43
1 l-38 5 0 209 c0 152 -3 209 -12 209 -8 0 -10 -54 -5 -211 l6 -210 -47 7
c-26 3 -49 9 -52 11 -3 3 -7 98 -10 211 -3 131 -8 200 -14 189 -5 -11 -6 -104
-2 -213 l8 -194 -44 6 c-24 4 -44 7 -44 8 -1 1 -4 90 -6 199 -3 108 -8 200
-12 204 -3 4 -6 -76 -5 -178 1 -230 1 -231 -11 -224 -6 4 -10 83 -10 206 0
126 -4 199 -10 199 -6 0 -10 -73 -10 -200 0 -127 -4 -200 -10 -200 -8 0 -17
306 -11 372 1 9 -3 19 -9 23 -9 5 -10 -45 -5 -194 l7 -201 -30 0 -29 0 -6 113
c-2 61 -4 151 -3 200 0 48 -2 87 -6 87 -5 0 -8 -90 -8 -201 0 -179 -2 -200
-16 -195 -9 3 -22 6 -30 6 -12 0 -14 33 -14 189 0 133 -3 192 -12 197 -8 5 -9
-42 -4 -189 7 -191 6 -197 -13 -197 -18 0 -19 9 -21 183 -2 223 -1 207 -13
207 -5 0 -6 -75 -2 -190 6 -169 5 -190 -9 -190 -10 0 -17 10 -18 28 -4 65 -4
94 -6 220 -1 91 -5 131 -13 127 -7 -5 -8 -65 -3 -191 6 -166 5 -184 -10 -184
-14 0 -16 21 -16 190 0 120 -4 190 -10 190 -6 0 -10 -73 -10 -199z m1393 126
c53 -10 57 -13 57 -39 0 -15 5 -28 10 -28 6 0 10 6 9 13 -4 28 2 37 26 37 l25
0 0 -216 c0 -193 -2 -215 -16 -210 -9 3 -20 6 -25 6 -5 0 -9 77 -9 180 0 101
-4 180 -9 180 -5 0 -7 -73 -5 -174 4 -122 2 -176 -6 -181 -6 -4 -31 -4 -56 0
l-44 6 0 211 c0 116 -2 209 -5 206 -3 -3 -6 -99 -6 -213 l0 -207 -41 6 c-23 4
-43 8 -45 9 -2 3 -4 165 -4 323 l1 121 43 -9 c23 -5 68 -15 100 -21z m558 -62
c0 -11 2 -109 4 -217 l3 -198 -23 0 c-30 0 -35 32 -35 257 l0 183 25 -2 c17
-2 25 -8 26 -23z m-233 -203 c2 -166 0 -192 -13 -192 -16 0 -16 -6 -21 225 -4
149 -1 169 19 163 9 -4 13 -54 15 -196z m45 146 c4 -24 6 -109 6 -190 1 -124
-2 -148 -14 -148 -12 0 -15 13 -15 58 -1 31 -3 117 -5 190 -3 106 -2 132 9
132 9 0 16 -16 19 -42z m245 -171 c2 -164 0 -197 -12 -197 -23 0 -26 24 -26
217 0 170 1 184 18 181 15 -3 17 -22 20 -201z m-401 185 c9 -5 12 -55 12 -175
l-1 -167 -39 0 c-30 0 -39 4 -40 18 -1 9 -2 88 -3 174 l-1 158 30 0 c17 0 35
-4 42 -8z m453 -19 c0 -16 2 -103 3 -195 4 -165 3 -168 -17 -168 -20 0 -21 5
-24 195 -3 192 -3 195 17 195 16 0 21 -6 21 -27z m70 -178 l0 -195 -25 0 -25
0 0 195 0 195 25 0 25 0 0 -195z m-460 20 c0 -158 -1 -165 -20 -165 -19 0 -20
7 -20 165 0 158 1 165 20 165 19 0 20 -7 20 -165z m208 153 c6 -8 10 -79 10
-178 l0 -165 -48 3 c-44 4 -48 6 -54 34 -3 17 -6 95 -6 174 l0 144 44 0 c24 0
48 -6 54 -12z"/>
<path d="M2660 5392 c0 -9 260 -50 264 -43 2 3 -1 17 -5 31 -7 24 -8 24 -14 4
-6 -20 -9 -20 -83 -8 -125 19 -162 22 -162 16z"/>
<path d="M3060 5369 c0 -17 -4 -28 -10 -24 -5 3 -10 15 -10 26 0 10 -4 19 -10
19 -5 0 -10 -12 -10 -26 0 -33 -33 -30 -38 4 -2 12 -8 22 -13 22 -11 0 -12
-47 -1 -54 4 -3 75 -16 158 -30 82 -14 232 -41 334 -59 189 -35 298 -54 500
-87 63 -11 142 -24 175 -30 33 -6 103 -18 155 -26 52 -8 142 -23 200 -34 58
-10 115 -20 128 -22 l23 -3 5 173 c4 115 3 172 -4 172 -7 0 -11 -58 -11 -162
-1 -89 -3 -163 -4 -164 -1 -1 -12 2 -24 7 -23 8 -23 12 -23 165 0 87 -3 154
-7 150 -5 -4 -9 -71 -10 -149 -1 -78 -2 -147 -3 -154 0 -6 -9 -9 -20 -6 -19 5
-20 14 -20 161 0 85 -3 153 -6 149 -3 -3 -8 -70 -11 -149 -7 -198 -23 -201
-23 -3 0 87 -3 155 -7 151 -5 -4 -11 -74 -14 -154 l-5 -147 -2 151 -2 151 -50
2 -50 1 0 -140 c0 -77 -2 -140 -4 -140 -3 0 -16 4 -30 10 l-26 10 1 125 c1 69
-1 129 -5 132 -3 4 -6 -53 -6 -125 0 -117 -8 -160 -24 -134 -3 5 -6 66 -7 136
-1 69 -5 126 -10 126 -5 0 -9 -58 -9 -130 0 -120 -1 -130 -19 -130 -16 0 -19
13 -28 133 l-10 132 -1 -129 c-2 -112 -4 -127 -18 -122 -9 3 -18 6 -20 6 -2 0
-4 51 -4 114 0 66 -4 117 -10 121 -6 4 -10 -37 -10 -115 0 -78 -4 -119 -10
-115 -6 4 -10 55 -10 121 0 69 -4 114 -10 114 -6 0 -10 -45 -10 -115 l0 -115
-29 0 c-52 0 -61 20 -61 131 0 65 -4 99 -11 99 -8 0 -9 -32 -5 -105 4 -88 3
-105 -9 -105 -8 0 -15 8 -16 18 0 9 -1 56 -2 105 -3 123 -17 109 -17 -18 l0
-104 -32 5 c-60 10 -58 7 -58 109 0 58 -4 95 -10 95 -7 0 -9 -34 -7 -95 3 -84
2 -95 -12 -93 -13 3 -17 21 -19 101 -3 123 -22 120 -22 -4 0 -53 -4 -89 -10
-89 -6 0 -10 38 -10 95 0 57 -4 95 -10 95 -6 0 -10 -37 -10 -91 l0 -91 -31 6
c-17 3 -38 6 -45 6 -11 0 -14 19 -14 80 0 47 -4 80 -10 80 -6 0 -10 -33 -10
-78 l0 -79 -30 5 -30 4 0 74 c0 41 -4 74 -10 74 -5 0 -9 -30 -7 -70 1 -51 -1
-70 -10 -70 -9 0 -13 21 -13 70 0 90 -18 92 -22 2 l-3 -68 -32 8 c-33 8 -33 9
-33 68 0 33 -4 60 -9 60 -5 0 -9 -25 -10 -56 0 -31 -2 -58 -3 -60 -6 -5 -97
17 -97 24 1 4 1 26 0 50 -1 56 -21 54 -21 -3 0 -38 -3 -45 -20 -45 -17 0 -20
7 -20 51 0 31 -4 48 -10 44 -5 -3 -10 -24 -10 -46 0 -36 -2 -40 -22 -37 -20 3
-23 8 -20 41 2 22 -1 37 -7 37 -6 0 -11 -16 -11 -35 0 -31 -3 -35 -25 -35 -23
0 -25 4 -25 42 0 47 -8 48 -12 0 -4 -56 -23 -33 -21 26 1 6 -3 12 -8 12 -5 0
-9 -14 -9 -31z m1356 1 c11 0 14 -25 14 -135 0 -141 -1 -145 -44 -129 -14 5
-16 27 -16 141 0 119 2 134 16 129 9 -3 22 -6 30 -6z"/>
<path d="M4680 4603 c-1 -439 -1 -920 0 -1070 l1 -272 -23 -5 c-28 -6 -239
-36 -254 -36 -6 0 -16 11 -22 24 -9 21 -8 26 6 30 13 4 232 36 245 36 2 0 3
99 2 221 l0 220 -105 -5 c-58 -4 -161 -8 -230 -11 -69 -3 -174 -10 -235 -15
-60 -6 -168 -13 -240 -16 -71 -3 -179 -9 -240 -13 -88 -6 -113 -5 -125 6 -12
11 -13 15 -2 22 7 4 131 13 275 20 144 7 327 16 407 21 80 5 210 12 290 15 80
3 160 8 178 11 l32 5 0 194 c0 179 -1 195 -17 196 -30 2 -386 7 -928 15 -366
5 -522 10 -527 18 -15 22 -8 33 20 30 16 -2 168 -5 338 -8 524 -8 925 -16
1022 -21 l92 -5 -2 197 -3 198 -100 12 c-55 7 -179 19 -275 28 -96 8 -215 19
-265 24 -49 6 -130 13 -180 16 -92 6 -335 26 -550 45 -66 6 -155 15 -197 20
-43 5 -85 7 -93 4 -13 -5 -15 -34 -15 -179 0 -163 -1 -173 -18 -168 -17 4 -19
19 -21 176 -1 94 -5 174 -9 178 -4 4 -122 16 -262 28 -140 12 -329 28 -420 36
-91 8 -244 21 -340 29 -96 9 -229 20 -295 26 -124 11 -256 22 -480 40 -135 11
-183 15 -322 26 l-82 7 1 -327 c0 -235 4 -326 12 -327 31 -4 119 -7 561 -14
330 -5 482 -11 487 -19 4 -6 8 -18 8 -26 0 -17 -106 -18 -752 -4 l-318 7 0
-327 0 -326 142 5 c210 8 574 24 813 36 116 6 228 11 250 12 35 2 40 -1 43
-20 3 -22 0 -23 -65 -23 -37 0 -106 -4 -153 -10 -78 -8 -334 -23 -640 -35
-143 -6 -238 -12 -328 -21 l-62 -6 -1 -217 c0 -119 -1 -280 -3 -358 -1 -79 1
-148 5 -154 6 -11 132 3 616 66 103 14 263 34 354 45 91 11 210 27 265 35 143
22 144 22 144 -19 l0 -33 -62 -7 c-35 -4 -117 -15 -183 -26 -66 -10 -176 -25
-245 -35 -154 -20 -424 -60 -545 -81 -49 -8 -124 -19 -165 -24 -407 -49 -620
-81 -620 -93 0 -5 15 -6 35 -3 19 4 99 15 177 26 305 40 388 52 538 75 85 13
178 27 205 31 28 4 52 8 55 9 12 3 107 16 285 40 105 14 233 32 285 40 165 25
235 33 242 26 11 -11 21 -161 10 -161 -5 0 -158 -25 -339 -55 -303 -51 -411
-69 -503 -81 -19 -3 -66 -11 -105 -19 -38 -7 -131 -23 -205 -35 -74 -11 -189
-29 -255 -40 -261 -41 -312 -49 -368 -56 -31 -3 -57 -11 -57 -16 0 -6 18 -8
48 -4 74 11 239 36 337 52 50 9 171 28 270 44 99 16 288 46 420 68 132 22 287
48 345 57 58 9 176 28 264 44 105 18 159 24 161 17 2 -6 5 -35 8 -64 4 -47 2
-55 -17 -62 l-21 -9 21 0 c19 -1 22 -9 27 -69 4 -37 7 -94 7 -128 0 -34 3 -96
7 -138 6 -72 8 -78 35 -92 16 -8 213 -76 436 -151 277 -92 426 -137 468 -140
134 -11 178 1 884 241 90 31 167 56 170 56 7 0 130 -184 130 -196 0 -5 -14
-17 -30 -26 -17 -9 -30 -22 -30 -28 0 -6 16 1 35 16 20 15 38 24 41 21 7 -7
95 -147 117 -187 16 -30 21 -32 56 -27 35 4 43 1 77 -34 35 -36 43 -39 92 -39
45 0 59 5 93 32 21 17 39 37 39 44 0 14 23 24 57 24 56 0 163 147 203 280 17
56 21 61 61 69 18 4 34 12 36 18 3 9 -5 9 -32 2 -53 -15 -67 -4 -21 16 22 9
62 17 88 17 28 -1 46 3 43 9 -8 12 -87 12 -121 -1 -15 -6 -29 -8 -33 -5 -8 9
21 25 47 25 12 0 22 5 22 11 0 7 -11 9 -30 6 -16 -4 -30 -3 -30 2 0 12 48 31
64 25 8 -3 32 4 55 16 23 11 41 16 41 11 0 -5 14 -4 32 2 37 14 104 74 94 84
-4 4 -17 -5 -29 -19 -20 -24 -75 -58 -93 -58 -4 0 1 9 11 20 26 29 10 25 -33
-9 -20 -16 -48 -32 -62 -36 -25 -7 -25 -7 3 15 40 32 26 36 -22 6 -22 -14 -45
-26 -51 -26 -6 0 -9 29 -8 74 3 67 1 77 -21 100 -45 48 -134 22 -168 -49 -9
-19 -21 -35 -27 -35 -14 0 -222 160 -277 213 l-46 45 -7 155 c-4 85 -11 181
-16 213 -5 32 -7 60 -4 63 2 3 46 12 96 21 66 11 112 14 162 8 39 -4 139 -15
221 -23 83 -8 186 -20 230 -25 44 -6 139 -15 210 -20 72 -5 236 -20 365 -34
129 -14 303 -32 385 -40 83 -9 184 -20 225 -25 41 -6 113 -13 160 -16 47 -3
146 -12 220 -20 514 -56 559 -61 548 -50 -6 7 -211 32 -358 45 -63 5 -155 15
-205 20 -49 6 -205 22 -345 36 -300 29 -347 34 -380 40 -14 2 -56 7 -95 10
-38 3 -149 14 -245 24 -96 11 -238 24 -315 30 -77 6 -194 17 -260 25 -371 44
-434 48 -534 31 -52 -9 -95 -15 -96 -14 -2 2 -6 17 -10 35 -6 29 -4 33 22 39
15 3 44 10 63 14 75 18 144 21 257 10 65 -6 210 -19 323 -30 113 -10 270 -24
350 -30 80 -6 258 -22 395 -35 138 -13 318 -28 400 -35 83 -6 195 -15 250 -20
55 -5 179 -17 275 -25 96 -9 220 -20 275 -25 200 -19 260 -23 253 -15 -4 4
-98 16 -209 26 -136 12 -205 23 -211 31 -14 23 -8 47 14 59 15 8 18 14 10 17
-7 2 -23 -4 -34 -14 -20 -17 -21 -18 -15 -1 9 25 -4 21 -30 -10 l-23 -28 6 32
c5 28 4 31 -17 30 -13 0 -57 3 -98 8 -53 5 -72 4 -67 -4 4 -6 2 -20 -5 -32 -9
-17 -8 -20 3 -16 7 2 26 -3 41 -12 28 -16 29 -15 51 11 12 16 31 28 41 28 17
-1 16 -4 -10 -26 -21 -18 -24 -24 -10 -19 47 17 55 17 55 1 0 -13 5 -14 26 -6
29 11 44 6 44 -16 0 -12 -8 -13 -34 -9 -19 4 -76 10 -127 13 l-94 7 -3 48 c-3
52 -10 57 -37 27 -12 -13 -22 -17 -28 -11 -5 5 -16 7 -23 4 -8 -3 -14 0 -14 7
0 8 9 10 25 6 14 -4 25 -2 25 3 0 15 -70 25 -83 12 -8 -8 -7 -11 6 -11 14 0
15 -4 6 -24 -20 -44 -93 -43 -639 4 -124 11 -263 24 -310 30 -47 5 -132 12
-190 15 -58 4 -145 11 -195 16 -124 13 -392 38 -440 41 l-40 3 -3 47 c-1 26 2
49 8 53 10 6 378 -18 520 -35 47 -6 229 -19 405 -31 176 -11 372 -24 435 -29
63 -5 210 -16 325 -25 116 -9 291 -22 390 -30 358 -30 543 -40 533 -29 -4 3
-125 14 -270 25 -144 10 -315 23 -378 29 -63 6 -149 12 -190 15 -129 9 -378
28 -720 55 -69 5 -170 12 -225 15 -162 9 -379 26 -395 30 -8 2 -67 7 -130 11
-63 4 -126 8 -140 9 -14 1 -51 3 -82 4 -35 0 -62 7 -71 16 -13 12 -14 157 -10
1075 3 750 2 1060 -6 1060 -7 0 -11 -238 -11 -797z m-3680 312 c107 -8 215
-17 240 -20 50 -6 251 -23 350 -30 36 -3 110 -9 165 -15 55 -5 127 -12 160
-14 33 -3 112 -9 175 -15 63 -6 176 -15 250 -21 74 -6 160 -14 190 -18 55 -7
55 -7 58 -44 3 -37 2 -38 -28 -38 -23 0 -33 5 -37 20 -4 16 -14 20 -49 20 -42
0 -44 -1 -44 -31 0 -28 -2 -30 -32 -27 -29 3 -33 7 -34 36 -1 18 -4 36 -7 39
-5 4 -153 8 -194 4 -7 -1 -13 -10 -13 -21 0 -19 -4 -20 -67 -14 -92 8 -93 8
-93 49 0 31 -3 35 -27 35 -16 1 -56 3 -90 6 -60 4 -63 3 -63 -18 0 -47 -9 -49
-133 -42 -105 6 -117 9 -117 25 0 16 -9 19 -52 21 -63 1 -65 2 -101 16 -47 20
-47 19 -51 -37 -1 -15 -93 -17 -203 -5 -50 6 -53 8 -53 35 0 28 -2 29 -49 29
-41 0 -50 -3 -54 -20 -5 -19 -10 -20 -89 -14 -45 4 -84 7 -85 8 -1 1 -3 20 -4
41 -3 46 -12 55 -56 55 -18 0 -33 5 -33 10 0 13 39 13 270 -5z m-241 -315 c2
-256 0 -290 -13 -290 -14 0 -16 35 -16 290 0 232 3 290 13 290 11 0 14 -59 16
-290z m41 158 c0 -73 1 -200 3 -281 3 -144 -1 -175 -20 -164 -10 6 -17 552 -8
568 18 29 25 -4 25 -123z m283 65 c3 -5 6 -123 8 -263 l4 -255 -27 -1 c-15 -1
-31 2 -37 6 -7 4 -13 101 -17 263 l-7 257 36 0 c20 0 38 -3 40 -7z m310 -20
c3 -5 8 -119 12 -255 6 -224 5 -248 -9 -248 -14 0 -16 17 -16 128 -1 70 -3
184 -6 255 -4 85 -3 127 4 127 6 0 13 -3 15 -7z m-510 -87 c3 -40 6 -148 6
-239 l2 -167 -36 0 -35 0 0 239 c0 248 1 254 41 244 12 -4 18 -22 22 -77z
m1009 -53 c2 -76 2 -145 0 -155 -2 -10 -17 -18 -38 -20 l-34 -4 0 158 0 158
34 0 34 0 4 -137z m39 105 c4 -185 3 -263 -6 -266 -6 -1 -11 54 -13 148 -2 98
1 150 8 150 5 0 10 -15 11 -32z m-947 16 c14 -5 16 -36 16 -240 l0 -234 -44 0
c-41 0 -44 2 -50 31 -3 17 -6 125 -6 240 l0 209 34 0 c19 0 41 -3 50 -6z m502
-2 c7 -4 11 -89 13 -244 l3 -238 -36 0 c-19 0 -37 4 -40 8 -4 6 -11 449 -7
475 1 9 53 9 67 -1z m494 -148 c0 -120 -3 -155 -12 -152 -10 4 -14 46 -16 156
-2 131 0 152 13 152 13 0 15 -23 15 -156z m-440 61 c0 -47 2 -155 5 -240 3
-123 2 -155 -9 -155 -10 0 -15 35 -19 143 -12 244 -9 337 8 337 12 0 15 -16
15 -85z m1094 79 c14 -5 16 -28 16 -151 0 -144 0 -144 -22 -141 -23 3 -23 6
-24 143 -1 163 -1 161 30 149z m64 -154 c-1 -117 -4 -150 -15 -150 -14 0 -14
0 -16 182 -2 107 0 118 16 118 16 0 17 -13 15 -150z m168 134 c38 -5 39 -11
39 -210 0 -126 0 -129 -22 -132 -22 -3 -23 0 -24 60 -1 35 -2 79 -3 98 -1 19
-3 59 -4 88 l-2 52 -39 0 c-64 0 -101 11 -101 30 0 9 3 19 6 23 6 5 87 1 150
-9z m-1693 -151 c4 -87 7 -191 7 -230 l0 -73 -30 0 c-17 0 -33 6 -35 13 -2 6
-6 110 -7 230 l-3 217 31 0 31 0 6 -157z m42 145 c2 -7 6 -111 10 -230 5 -193
4 -218 -10 -218 -12 0 -15 14 -16 73 -1 39 -4 140 -8 222 -4 83 -5 153 -3 158
5 11 22 8 27 -5z m69 -44 c3 -26 6 -127 6 -225 0 -168 -1 -179 -19 -179 -15 0
-19 11 -24 68 -4 37 -7 138 -7 225 0 147 1 157 19 157 14 0 20 -10 25 -46z
m76 -119 c3 -88 4 -188 2 -222 -3 -58 -5 -63 -26 -63 -22 0 -23 2 -29 143 -4
78 -7 179 -7 225 l0 83 28 -3 27 -3 5 -160z m284 119 c3 -26 6 -127 6 -224 l0
-178 -40 -4 c-27 -2 -41 1 -45 10 -3 8 -5 110 -5 228 l0 214 39 0 c38 0 38 0
45 -46z m586 -74 l0 -115 -32 0 -33 0 -3 118 -3 118 36 -3 35 -2 0 -116z m70
5 l0 -115 -25 0 -25 0 0 115 0 115 25 0 25 0 0 -115z m48 -3 c2 -95 0 -112
-13 -112 -13 0 -15 18 -15 116 0 88 3 115 13 112 8 -3 13 -38 15 -116z m-658
-113 c0 -172 -3 -220 -12 -217 -10 4 -14 59 -15 221 -3 187 -1 217 12 217 13
0 15 -31 15 -221z m98 212 c9 -1 12 -33 12 -126 0 -117 -2 -128 -26 -166 -20
-33 -25 -51 -23 -92 3 -49 2 -52 -21 -52 l-25 0 2 220 c1 121 2 221 2 222 1 2
16 1 34 -1 17 -3 38 -5 45 -5z m1422 -11 c74 -6 173 -15 220 -20 47 -6 126
-13 175 -16 50 -4 92 -8 95 -11 6 -5 -22 -23 -30 -18 -5 3 -69 10 -203 21 -73
6 -79 5 -84 -14 -5 -19 -11 -20 -81 -15 -44 3 -81 11 -87 18 -6 7 -44 15 -85
18 -125 10 -150 17 -150 39 0 18 5 19 48 14 26 -3 108 -10 182 -16z m-1132
-118 l-3 -105 -37 -13 -38 -13 -1 57 c0 31 -1 86 -2 120 -1 35 -1 65 0 66 1 1
20 0 43 -2 l41 -4 -3 -106z m389 13 c0 -71 -3 -105 -11 -105 -7 0 -10 26 -9
77 1 43 2 90 3 106 0 15 4 27 8 27 5 0 9 -47 9 -105z m33 -6 c0 -71 -4 -108
-10 -104 -6 3 -10 52 -10 111 0 63 4 104 10 104 6 0 10 -44 10 -111z m-370 91
c11 -7 15 -31 16 -95 2 -75 -1 -87 -17 -96 -25 -13 -27 -6 -33 102 -6 100 -1
111 34 89z m629 -119 c-2 -66 -7 -123 -11 -126 -4 -4 -14 -5 -23 -2 -12 5 -15
27 -15 127 l0 120 26 0 26 0 -3 -119z m65 113 c14 -5 16 -27 16 -140 0 -74 -2
-134 -4 -134 -1 0 -17 5 -35 11 l-31 11 0 129 c0 120 1 129 19 129 11 0 26 -3
35 -6z m-247 -14 c8 0 12 -29 12 -95 1 -100 0 -101 -46 -89 -22 6 -23 11 -23
101 0 94 0 95 23 89 12 -3 27 -6 34 -6z m451 -152 c1 -87 -1 -158 -5 -158 -5
0 -15 6 -24 13 -12 9 -17 41 -22 153 -4 78 -3 144 0 148 4 4 16 6 28 4 19 -3
20 -11 23 -160z m717 -65 c6 -187 5 -213 -8 -213 -14 0 -16 29 -16 206 -1 179
3 235 14 222 1 -2 6 -99 10 -215z m113 201 c12 -2 22 -9 22 -15 0 -7 -19 -9
-56 -5 -61 6 -76 12 -56 25 12 7 35 6 90 -5z m-1430 -77 l3 -78 -32 3 -33 3
-4 78 -4 78 34 -3 33 -3 3 -78z m700 -110 l2 -189 -40 34 -40 33 0 158 0 158
38 -3 37 -3 3 -188z m69 -12 c-2 -107 -6 -197 -9 -201 -4 -3 -15 -3 -25 0 -17
5 -18 20 -17 193 1 104 2 191 2 196 1 4 13 7 27 7 l26 0 -4 -195z m257 164 c3
-17 6 -110 6 -206 l0 -174 -27 3 -28 3 -3 203 -2 202 24 0 c18 0 25 -7 30 -31z
m36 -61 c0 -51 3 -144 7 -205 5 -99 4 -113 -10 -113 -14 0 -16 25 -16 205 0
122 4 205 10 205 5 0 9 -41 9 -92z m40 -78 c2 -226 1 -247 -9 -231 -13 20 -14
408 -2 396 5 -6 10 -80 11 -165z m390 -35 c0 -157 -3 -205 -12 -205 -10 0 -14
49 -16 205 -3 180 -1 205 12 205 14 0 16 -26 16 -205z m78 195 c10 0 12 -42
10 -197 l-3 -198 -31 -3 c-31 -3 -31 -2 -36 50 -3 29 -4 114 -2 188 2 74 4
143 4 154 0 14 5 17 23 12 12 -3 28 -6 35 -6z m-365 -27 c3 -16 5 -104 4 -198
l-2 -170 -42 -3 -43 -3 0 200 0 201 39 0 c34 0 39 -3 44 -27z m455 -180 l2
-203 -22 0 c-47 0 -48 5 -44 205 2 105 4 194 5 198 1 5 13 7 29 5 l27 -3 3
-202z m-810 4 l2 -188 -32 3 -33 3 -3 175 c-1 96 0 180 3 188 3 8 16 12 32 10
l28 -3 3 -188z m430 48 c1 -77 0 -164 -4 -193 -5 -47 -8 -53 -27 -50 -22 3
-22 7 -25 196 l-4 193 29 -3 28 -3 3 -140z m105 114 c3 -11 6 -96 7 -189 l1
-170 -30 0 -29 0 -1 194 -2 193 25 -4 c13 -3 26 -14 29 -24z m319 -111 c4
-179 0 -260 -13 -256 -5 2 -11 88 -14 201 -3 164 -2 197 10 197 11 0 15 -28
17 -142z m173 127 c57 -6 180 -19 273 -31 l42 -5 0 -180 c0 -152 -2 -179 -15
-179 -13 0 -15 25 -15 163 l0 162 -32 17 c-18 9 -50 19 -70 21 -31 5 -38 2
-43 -14 -5 -16 -14 -19 -43 -17 -28 2 -37 7 -36 20 1 13 -10 18 -55 23 -31 4
-67 8 -81 10 -14 2 -37 4 -52 4 -16 1 -28 6 -28 12 0 7 16 9 48 5 26 -3 74 -8
107 -11z m-924 -34 c4 -19 7 -100 6 -180 l-2 -146 -42 -3 -43 -3 0 53 c0 29
-3 113 -7 186 l-6 133 44 -3 c40 -3 44 -5 50 -37z m483 33 c14 -5 16 -32 16
-190 l0 -184 -24 0 -24 0 -1 190 c0 105 4 190 9 190 4 0 15 -3 24 -6z m316
-204 c0 -153 -2 -180 -15 -180 -12 0 -15 19 -17 103 0 56 -2 137 -3 180 -2 69
0 77 17 77 17 0 18 -12 18 -180z m51 173 c1 -5 2 -86 3 -180 2 -161 1 -173
-16 -173 -10 0 -18 3 -18 8 -1 4 -3 85 -6 180 -6 169 -5 172 15 172 12 0 21
-3 22 -7z m61 -25 c1 -18 0 -98 -2 -178 -2 -135 -9 -168 -31 -154 -9 5 -11
342 -3 355 13 22 34 8 36 -23z m53 -158 c0 -149 -2 -175 -15 -175 -13 0 -15
28 -18 178 -2 166 -1 178 15 175 16 -3 18 -19 18 -178z m140 -3 c0 -105 -4
-167 -10 -167 -6 0 -10 64 -11 170 0 119 3 169 10 167 7 -2 11 -59 11 -170z
m37 147 c7 -36 -4 -314 -12 -314 -5 0 -8 74 -8 165 1 91 5 165 9 165 4 0 9 -7
11 -16z m-94 -10 l23 -7 -5 -151 c-2 -83 -5 -152 -5 -153 -1 -2 -19 -3 -42 -3
l-40 0 2 153 c1 83 4 155 6 160 5 9 30 9 61 1z m150 -150 c2 -145 2 -152 -18
-157 -19 -5 -20 -1 -20 155 0 146 1 159 18 156 15 -3 17 -20 20 -154z m-2069
90 c113 -16 304 -66 329 -87 14 -11 56 -87 50 -91 -57 -41 -68 -45 -96 -40
-34 7 -142 -13 -142 -26 0 -5 -65 -74 -145 -154 -153 -152 -194 -213 -211
-310 -12 -70 -23 -14 -23 122 -1 79 -5 121 -11 117 -29 -18 11 -393 61 -574
11 -42 45 -126 75 -187 30 -61 54 -114 54 -118 0 -4 -19 -15 -42 -26 -34 -14
-38 -19 -20 -19 21 -1 93 34 132 64 8 6 44 24 80 39 36 15 74 32 85 37 67 31
188 52 325 56 144 5 146 5 210 -25 78 -35 99 -57 139 -142 46 -98 115 -380
137 -560 9 -72 16 -85 68 -115 37 -22 49 -38 84 -114 23 -48 53 -120 68 -159
20 -55 32 -74 49 -78 36 -9 168 13 262 45 82 27 116 30 96 10 -4 -4 -62 -27
-128 -49 -66 -23 -212 -73 -325 -111 -343 -118 -395 -132 -501 -137 -81 -3
-110 0 -190 22 -77 21 -733 237 -791 261 -17 7 -18 20 -33 250 -26 395 -58
654 -124 990 -20 102 -72 322 -90 385 -26 86 -68 238 -92 326 -10 40 -32 107
-47 150 -44 119 -46 144 -19 185 27 41 60 59 107 59 87 0 165 -49 216 -135 76
-130 87 -265 35 -426 -29 -89 -41 -189 -23 -189 4 0 8 24 8 53 1 28 13 86 28
127 33 90 45 225 27 296 -20 77 -59 150 -112 209 l-50 54 28 7 c15 3 42 10 58
14 52 14 286 11 404 -6z m491 -119 c75 -38 114 -78 148 -152 30 -67 35 -81 48
-170 6 -44 6 -44 -15 -31 -21 13 -27 37 -30 112 -3 86 -91 161 -212 180 -29 5
-37 12 -49 44 -8 20 -17 41 -19 46 -7 16 79 -4 129 -29z m3 -91 c56 -19 127
-91 127 -129 0 -14 -4 -25 -9 -25 -21 0 -20 -34 1 -58 l23 -25 -32 5 c-31 4
-46 -6 -21 -14 18 -6 -29 -81 -76 -120 -74 -62 -96 -70 -155 -52 -69 20 -83
43 -89 153 -6 125 9 181 64 237 51 50 85 56 167 28z m-204 -23 c10 -7 8 -12
-10 -25 -13 -9 -29 -16 -36 -16 -22 0 -44 -46 -45 -93 0 -33 7 -59 26 -91 14
-24 26 -52 26 -62 0 -9 5 -34 11 -55 10 -32 19 -41 62 -58 27 -12 56 -21 63
-21 8 0 14 -10 14 -24 0 -18 -6 -26 -22 -28 -20 -3 -25 -16 -50 -133 -51 -241
-66 -310 -73 -337 -5 -20 -3 -28 6 -29 8 0 -15 -11 -51 -23 -36 -13 -68 -20
-73 -16 -13 11 -36 117 -48 215 -11 89 -10 97 10 130 26 45 27 54 1 24 l-19
-24 -1 27 c0 15 -5 30 -11 34 -23 14 13 -300 46 -401 5 -17 -5 -26 -71 -58
-92 -46 -82 -53 -155 98 -54 112 -59 131 -30 115 37 -19 46 -10 11 11 -19 12
-37 23 -39 25 -5 5 -30 111 -41 181 -11 68 -3 130 32 226 20 56 21 57 59 57
44 0 132 -31 160 -56 11 -9 19 -13 19 -7 0 22 -43 47 -116 68 l-75 22 27 34
c88 109 202 208 215 187 6 -9 10 -7 14 7 23 74 32 83 87 93 29 5 55 10 58 11
3 0 11 -3 19 -8z m-1569 -37 c184 -3 337 -7 339 -9 2 -2 1 -11 -2 -20 -5 -11
-21 -15 -61 -15 l-55 0 -3 -42 c-3 -43 -6 -45 -47 -39 -5 0 -7 15 -5 31 5 30
5 30 -39 30 -36 0 -46 -4 -50 -20 -5 -18 -14 -20 -96 -20 -76 0 -91 3 -91 16
0 27 -27 44 -69 44 -34 0 -41 -3 -41 -20 0 -19 -7 -20 -140 -20 l-140 0 0 44
c0 26 5 47 13 50 6 3 44 3 82 1 39 -3 221 -7 405 -11z m410 -289 l0 -285 -25
0 -25 0 -2 178 c-1 97 -3 225 -4 285 l-2 107 29 0 29 0 0 -285z m163 248 c16
-55 6 -63 -73 -63 l-70 0 0 50 0 51 67 -3 c66 -3 67 -4 76 -35z m966 15 c0 -7
-6 -47 -13 -88 l-12 -75 -13 38 c-18 55 0 137 30 137 5 0 9 -6 8 -12z m441
-47 c0 -22 3 -48 7 -58 3 -10 3 -15 -1 -12 -3 3 -12 29 -20 58 -11 43 -11 51
0 51 10 0 14 -13 14 -39z m51 -38 c0 -43 2 -93 4 -110 3 -33 -7 -43 -22 -21
-4 7 -9 57 -11 110 -3 84 -1 98 12 98 13 0 16 -14 17 -77z m51 0 c2 -43 1
-105 -2 -138 -5 -54 -6 -58 -17 -38 -19 33 -18 253 1 253 11 0 15 -19 18 -77z
m388 63 c0 -13 -59 -26 -121 -26 -26 0 -29 -4 -29 -30 0 -29 -1 -30 -51 -30
l-51 0 7 30 7 30 -71 0 c-39 0 -71 2 -71 4 0 2 3 11 6 20 5 14 32 16 190 16
149 0 184 -3 184 -14z m41 -83 c2 -157 -1 -316 -6 -321 -12 -13 -15 15 -15
179 -2 235 -1 239 10 239 6 0 11 -40 11 -97z m447 87 c59 0 62 -1 62 -25 l0
-25 -110 -1 c-212 -2 -210 -2 -210 16 0 12 -16 15 -85 15 -72 0 -85 3 -85 16
0 15 18 16 183 11 100 -4 210 -7 245 -7z m104 -37 c3 -32 3 -208 -1 -320 -1
-18 -5 -33 -11 -33 -6 0 -10 72 -10 195 0 107 4 195 9 195 4 0 10 -17 13 -37z
m196 25 c-3 -9 -33 -14 -91 -16 -73 -2 -87 0 -87 13 0 12 16 15 91 15 68 0 90
-3 87 -12z m72 -172 c0 -181 0 -184 -22 -189 -12 -4 -24 -4 -26 -2 -6 6 -13
347 -8 362 3 7 17 13 31 13 l25 0 0 -184z m59 174 c11 0 12 -333 1 -350 -12
-18 -12 -15 -11 183 1 124 -2 147 -14 147 -8 0 -15 7 -15 16 0 11 5 14 16 10
9 -3 19 -6 23 -6z m-3544 -273 l0 -267 -22 0 c-31 0 -34 25 -31 295 3 193 5
231 18 237 8 3 20 5 25 4 6 -2 10 -100 10 -269z m495 7 c0 -247 -1 -254 -20
-254 -19 0 -20 7 -21 173 0 94 -2 207 -4 251 -3 43 -3 82 0 86 3 5 14 6 25 3
19 -5 20 -14 20 -259z m-60 1 c0 -248 -1 -255 -20 -255 -19 0 -20 7 -21 198
-1 108 -2 220 -3 247 -3 60 -1 65 25 65 18 0 19 -9 19 -255z m2284 208 c3 -21
6 -107 6 -190 0 -146 -1 -153 -20 -153 -19 0 -20 7 -20 190 0 154 3 190 14
190 8 0 16 -15 20 -37z m66 -154 l0 -189 -25 0 -25 0 0 189 0 189 25 0 25 0 0
-189z m48 4 c-2 -138 -6 -187 -15 -191 -10 -3 -13 39 -13 187 0 164 2 191 15
191 13 0 15 -25 13 -187z m-2797 34 c0 -73 4 -121 8 -107 4 14 6 66 6 117 l-1
91 42 4 41 3 7 -95 c11 -169 8 -370 -6 -371 -7 0 -28 -2 -45 -3 l-33 -4 -1 82
c-2 109 -3 113 -11 122 -5 4 -8 -41 -8 -99 0 -65 -4 -107 -10 -107 -6 0 -10
92 -10 256 0 167 3 253 10 249 6 -4 10 -62 11 -138z m269 -101 c-1 -209 -3
-245 -16 -250 -44 -17 -44 -19 -43 244 l1 250 29 0 29 0 0 -244z m2060 123 c0
-96 -2 -108 -16 -102 -11 4 -22 -1 -30 -12 -12 -16 -14 -2 -14 102 0 125 3
135 43 125 15 -4 17 -18 17 -113z m155 -69 c0 -138 -3 -184 -12 -187 -10 -4
-13 38 -13 187 0 149 3 191 13 188 9 -4 12 -50 12 -188z m55 -1 c0 -176 -1
-190 -17 -187 -16 3 -18 21 -21 177 -2 96 -1 180 2 187 3 8 12 14 21 14 13 0
15 -26 15 -191z m50 6 c0 -149 -3 -185 -13 -185 -11 0 -15 26 -20 103 -8 139
2 267 19 267 11 0 14 -36 14 -185z m655 13 c0 -148 -2 -167 -17 -171 -9 -3
-19 -2 -22 1 -3 3 -6 81 -6 174 l0 169 23 -3 c22 -3 22 -4 22 -170z m73 0 l2
-168 -30 0 -30 0 0 163 c0 90 3 167 7 171 4 4 16 6 28 4 19 -3 20 -11 23 -170z
m60 -1 l2 -168 -22 3 c-23 3 -23 5 -26 171 l-2 168 22 -3 c23 -3 23 -5 26
-171z m-1128 26 c0 -118 -2 -135 -14 -123 -10 10 -16 53 -20 138 -5 117 -5
122 14 122 19 0 20 -7 20 -137z m1223 -174 c-5 -5 -6 65 -3 154 l5 162 3 -154
c1 -85 -1 -158 -5 -162z m-3809 149 c5 -129 4 -260 -2 -329 -1 -9 -11 -19 -22
-22 -20 -5 -20 0 -20 249 0 243 1 254 19 254 17 0 19 -12 25 -152z m46 110 c0
-24 2 -128 5 -232 6 -197 3 -226 -21 -226 -12 0 -14 40 -14 250 0 216 2 250
15 250 11 0 15 -11 15 -42z m117 -65 c-4 -58 -7 -170 -7 -249 l0 -142 -45 0
-45 0 0 249 0 249 52 0 51 0 -6 -107z m73 -137 l0 -244 -26 -6 c-15 -4 -28 -5
-30 -3 -4 4 -6 180 -4 415 l0 82 30 0 30 0 0 -244z m2122 222 c-7 -7 -12 -8
-12 -2 0 6 3 14 7 17 3 4 9 5 12 2 2 -3 -1 -11 -7 -17z m1018 -143 c0 -125 -3
-165 -12 -165 -7 0 -30 -3 -50 -6 l-38 -7 0 166 0 166 28 4 c79 12 72 27 72
-158z m37 -2 c-2 -84 -7 -157 -11 -160 -3 -4 -6 69 -6 161 0 120 3 165 11 160
8 -4 10 -54 6 -161z m65 129 c3 -15 3 -67 2 -117 -2 -49 -3 -109 -3 -132 -1
-39 -3 -43 -26 -43 l-25 0 0 159 c0 119 3 160 13 164 21 7 35 -3 39 -31z
m-2944 -210 l2 -232 -38 0 -38 0 -2 229 c-3 250 -5 239 53 236 19 -2 20 -10
23 -233z m412 13 l0 -225 -29 0 -30 0 -3 203 c-4 249 -4 247 33 247 l29 0 0
-225z m83 214 c8 -8 16 -299 10 -369 l-6 -70 -33 0 c-19 0 -34 3 -35 8 -3 36
-6 429 -3 434 4 7 61 5 67 -3z m2229 -101 c2 -61 1 -136 0 -165 l-4 -53 -49 0
-49 0 0 165 0 165 49 0 50 0 3 -112z m-2582 -132 c0 -212 0 -214 -22 -219 -12
-4 -25 -4 -28 -1 -6 7 -9 357 -2 402 3 26 9 32 28 32 l24 0 0 -214z m400 52
c2 -211 0 -248 -10 -248 -6 0 -10 75 -9 208 0 130 4 199 9 185 5 -12 9 -77 10
-145z m1703 1 c-1 -83 -4 -153 -7 -156 -3 -3 -25 -7 -50 -8 -54 -4 -55 -2 -27
98 15 54 16 67 5 63 -11 -4 -14 6 -15 42 -2 48 -1 105 0 110 1 1 22 2 49 2
l47 0 -2 -151z m-354 72 c52 -35 141 -127 141 -146 0 -3 -12 -22 -27 -41 l-26
-35 -35 63 c-37 67 -62 101 -70 94 -2 -3 15 -35 37 -73 23 -38 41 -72 41 -75
0 -3 -33 4 -74 17 -41 13 -114 28 -162 35 -49 6 -90 13 -92 15 -2 1 10 7 25
13 43 15 117 86 138 131 10 23 24 41 32 41 8 0 40 -18 72 -39z m-1309 -193 c3
-118 2 -128 -10 -128 -6 0 -10 52 -9 138 1 153 15 146 19 -10z m1550 93 c0
-11 -123 -131 -128 -126 -10 9 102 143 115 138 7 -3 13 -8 13 -12z m-34 -225
c-25 -101 -46 -191 -46 -200 0 -13 -4 -13 -37 0 -21 9 -42 20 -47 24 -8 8 29
210 44 238 12 23 125 137 128 130 2 -4 -17 -90 -42 -192z m-318 138 c42 -8 81
-20 86 -24 5 -5 -6 -5 -25 0 -19 5 -70 16 -114 24 -44 8 -67 15 -52 15 15 1
63 -6 105 -15z m-38 -19 l65 -14 -67 5 c-37 3 -80 9 -95 14 l-28 8 30 1 c17 0
59 -6 95 -14z m-1121 -59 c6 -44 5 -56 -6 -56 -9 0 -13 17 -13 62 0 74 9 71
19 -6z m1163 27 c147 -19 140 -10 113 -130 -25 -106 -24 -104 -45 -93 -45 24
-57 -10 -16 -45 34 -28 20 -65 -23 -65 -26 0 -30 -3 -28 -26 2 -24 5 -25 72
-29 39 -2 93 -7 120 -11 28 -3 47 -3 43 1 -6 6 -174 35 -205 35 -7 0 -13 5
-13 10 0 6 27 10 60 10 33 0 60 -4 60 -10 0 -5 5 -10 11 -10 5 0 7 5 4 10 -4
6 12 10 39 10 26 0 46 5 46 11 0 6 -10 9 -22 8 -21 -3 -184 78 -176 87 8 8 94
-20 105 -34 7 -9 16 -13 19 -9 4 3 23 -3 44 -13 45 -23 67 -75 76 -180 5 -52
3 -68 -9 -78 -13 -12 -21 -7 -52 27 -21 23 -41 39 -45 36 -5 -3 -11 -1 -14 4
-4 5 -30 17 -59 26 -54 18 -82 35 -57 35 16 0 51 -9 138 -33 28 -9 52 -12 52
-8 0 7 -85 37 -145 51 -16 4 -40 10 -53 14 -21 7 -22 5 -16 -19 l6 -26 -49 6
c-43 6 -193 -6 -248 -20 -49 -13 -49 1 0 226 25 118 49 222 51 232 7 22 48 22
216 0z m1338 -64 l0 -49 -34 0 c-33 0 -34 1 -31 33 l3 33 -85 -4 c-70 -4 -85
-2 -81 9 3 10 31 15 97 19 51 3 102 6 112 7 16 1 19 -5 19 -48z m51 19 c2 -44
2 -212 0 -315 -1 -76 -3 -83 -21 -83 -19 0 -20 7 -20 215 0 208 1 215 20 215
16 0 20 -7 21 -32z m137 -170 c-2 -150 -6 -202 -15 -206 -10 -3 -13 39 -13
188 l0 192 -45 -6 c-41 -7 -45 -5 -45 13 0 19 6 21 60 21 l60 0 -2 -202z
m-1322 165 c-2 -10 -13 -57 -22 -105 -16 -79 -20 -88 -40 -88 -13 0 -26 5 -29
10 -4 6 3 53 15 105 21 94 22 95 51 95 24 0 29 -4 25 -17z m844 -32 l0 -48
-57 -6 c-32 -3 -62 -2 -66 2 -5 5 -7 26 -5 47 3 37 5 39 43 45 87 13 85 14 85
-40z m40 -87 c0 -87 -4 -133 -10 -129 -6 4 -10 60 -10 136 0 79 4 129 10 129
6 0 10 -52 10 -136z m-688 34 c31 -51 63 -108 72 -125 9 -18 22 -33 30 -33 29
0 55 -45 61 -107 7 -57 5 -65 -25 -120 -18 -32 -35 -60 -36 -62 -7 -9 -214
174 -214 191 0 11 17 27 48 42 53 28 92 55 77 56 -5 0 -23 -9 -40 -20 -43 -28
-51 -25 -68 25 -14 43 -13 52 10 145 14 55 27 100 28 100 1 0 27 -42 57 -92z
m503 -31 l0 -115 -29 -6 c-16 -4 -30 -5 -32 -4 -3 4 -7 139 -5 195 1 35 5 42
24 46 40 8 42 3 42 -116z m-85 104 c0 -15 -28 -19 -149 -23 -82 -2 -115 0
-118 9 -3 8 15 13 59 16 136 7 208 7 208 -2z m-281 -121 c2 -110 2 -111 -18
-100 -18 9 -21 21 -22 78 -2 96 2 126 14 134 6 4 14 5 17 3 4 -2 7 -54 9 -115z
m720 -7 c0 -71 -4 -150 -7 -176 l-7 -48 -30 33 -30 33 3 143 3 142 35 0 34 0
-1 -127z m177 92 c3 -19 4 -99 0 -177 -3 -79 -6 -146 -6 -150 0 -5 -4 -8 -10
-8 -6 0 -10 68 -10 185 0 111 4 185 10 185 5 0 12 -16 16 -35z m44 -144 c0
-150 -2 -180 -15 -185 -13 -5 -15 19 -15 179 0 158 2 185 15 185 13 0 15 -27
15 -179z m-1056 153 c3 -9 6 -23 6 -32 0 -13 -5 -11 -20 8 -11 14 -20 28 -20
33 0 14 28 7 34 -9z m56 -61 c0 -68 -2 -75 -14 -58 -28 42 -28 135 0 135 11 0
14 -18 14 -77z m690 -53 l0 -131 -30 16 c-16 9 -31 21 -31 28 -2 16 -2 79 0
155 1 62 1 62 31 62 l30 0 0 -130z m-350 10 l0 -100 -27 -5 c-69 -15 -63 -23
-63 90 0 113 -1 111 63 114 l27 1 0 -100z m-106 55 c9 -48 -4 -185 -18 -185
-6 0 -21 -3 -33 -6 -23 -6 -23 -6 -23 110 l0 116 34 0 c31 0 34 -3 40 -35z
m-92 -12 c7 -51 -3 -193 -13 -193 -4 0 -14 -3 -23 -6 -11 -4 -16 0 -16 14 0
12 -5 24 -10 27 -6 4 -10 47 -9 101 l1 94 33 0 c30 0 33 -3 37 -37z m711 -90
c-1 -60 -2 -129 -3 -155 0 -43 -3 -48 -25 -54 -14 -4 -28 -4 -32 -1 -4 5 -4
114 0 290 1 23 5 27 31 27 l31 0 -2 -107z m-2443 35 c6 -28 9 -53 7 -54 -2 -2
-38 -7 -80 -10 l-77 -7 0 32 c0 27 -3 31 -28 31 -35 0 -41 6 -35 30 4 16 16
20 67 22 33 2 78 4 98 5 36 2 37 1 48 -49z m2160 -19 c0 -61 -2 -70 -16 -65
-9 3 -38 6 -65 6 l-49 0 0 59 c0 67 1 68 83 70 l47 1 0 -71z m-2434 42 c-4 -5
-6 -149 -6 -320 l-1 -311 -23 -6 c-14 -3 -33 -4 -43 -2 -17 3 -18 22 -18 316
0 269 2 315 15 323 20 11 83 12 76 0z m42 -308 c-3 -287 -5 -318 -20 -321 -15
-3 -16 21 -12 300 2 167 4 311 4 321 0 9 7 17 15 17 13 0 15 -39 13 -317z
m-302 -53 l-1 -305 -40 -3 -40 -3 1 303 c1 393 -3 356 37 360 27 3 33 -1 38
-22 3 -14 5 -162 5 -330z m152 308 c-3 -52 -4 -53 -35 -56 -33 -3 -33 -3 -33
42 0 46 0 46 -36 46 -21 0 -33 4 -29 10 3 6 35 10 71 10 l65 0 -3 -52z m-248
27 c0 -8 -8 -15 -17 -15 -10 0 -69 -3 -130 -6 -99 -6 -113 -5 -113 9 0 17 20
20 173 24 72 2 87 0 87 -12z m-282 -343 c1 -206 -1 -342 -7 -342 -5 0 -15 -2
-23 -5 -11 -4 -13 56 -12 337 1 189 2 347 3 351 0 5 9 7 19 5 16 -3 17 -29 20
-346z m-166 326 c7 -20 -3 -682 -10 -690 -4 -3 -27 -8 -52 -10 l-45 -3 -2 330
c-2 182 0 340 2 352 3 14 14 23 33 26 53 8 70 7 74 -5z m108 -333 c-1 -325 -2
-345 -19 -345 -10 0 -32 -3 -48 -6 l-29 -6 1 114 c1 62 3 220 4 351 l1 237 45
0 46 0 -1 -345z m-237 321 c8 -19 8 -532 0 -623 -5 -69 -7 -73 -30 -73 l-25 0
7 348 c4 191 9 350 12 355 7 12 31 8 36 -7z m737 -296 l0 -310 -25 0 -25 0 0
310 0 310 25 0 25 0 0 -310z m301 253 c2 -25 4 -152 4 -282 l0 -236 -25 -3
-25 -3 1 278 c1 153 2 281 3 286 1 4 10 7 20 7 15 0 20 -9 22 -47z m-609 -105
c0 -79 2 -195 3 -258 3 -171 -4 -240 -24 -240 -14 0 -16 31 -18 301 -1 166 -5
304 -8 307 -3 3 -6 -93 -6 -214 -3 -437 0 -394 -26 -400 -13 -4 -26 -4 -29 -1
-6 6 -9 301 -6 521 l2 119 40 -6 c22 -3 40 -1 40 4 0 5 7 9 15 9 13 0 15 -23
17 -142z m74 -163 c0 -165 -1 -306 -4 -312 -2 -7 -15 -13 -28 -13 l-24 0 0
316 0 315 28 -3 27 -3 1 -300z m34 -7 c0 -171 -3 -308 -7 -304 -8 8 -14 596
-7 608 3 4 7 8 10 8 2 0 4 -140 4 -312z m38 29 c-1 -150 -5 -288 -9 -307 -6
-35 -9 41 -10 340 -1 228 0 252 11 245 6 -3 9 -111 8 -278z m622 161 c0 -46 3
-158 7 -250 l6 -168 -37 0 -36 0 0 250 0 250 30 0 30 0 0 -82z m44 -8 c15 -82
28 -346 18 -382 -2 -10 -12 -18 -21 -18 -16 0 -18 20 -20 208 -2 114 -4 218
-6 232 -2 24 4 54 10 48 2 -2 10 -41 19 -88z m1379 28 c-11 -20 -23 -4 -22 30
l1 37 13 -30 c7 -16 11 -33 8 -37z m-1503 29 c0 -13 2 -123 4 -246 3 -163 1
-223 -7 -226 -53 -18 -50 -31 -54 243 l-5 252 31 0 c26 0 31 -4 31 -23z m1326
8 c18 -14 18 -14 -8 -15 -18 0 -28 5 -28 15 0 19 11 19 36 0z m974 -11 c52
-11 137 -102 187 -199 79 -155 113 -313 113 -525 l0 -124 -44 43 c-45 44 -54
61 -75 137 -11 43 -21 53 -131 129 -30 21 -74 60 -98 86 -34 38 -59 54 -125
80 -85 32 -302 102 -356 114 -37 8 -38 16 -10 62 16 25 21 49 20 92 l0 58 62
16 c120 32 163 40 257 46 90 6 116 4 200 -15z m-2592 -246 l-3 -263 -32 -3
-32 -3 -3 243 c-2 134 -1 251 1 260 3 17 19 25 54 27 16 1 17 -16 15 -261z
m1850 79 l23 -24 -31 -13 c-17 -7 -32 -11 -34 -9 -2 2 -6 23 -10 47 -6 39 -5
42 11 33 10 -5 28 -20 41 -34z m1232 -67 c0 -43 -3 -50 -22 -54 -118 -25 -201
-37 -207 -30 -5 5 -15 28 -24 51 l-17 42 33 6 c80 15 184 31 210 33 26 2 27 1
27 -48z m-1148 -5 c26 -24 35 -40 31 -54 -3 -12 -9 -21 -13 -21 -9 0 -113 34
-155 50 l-30 12 55 23 c30 13 60 24 65 24 6 0 27 -15 47 -34z m215 -61 c166
-50 312 -101 340 -119 12 -8 48 -49 79 -90 31 -42 59 -73 62 -71 3 3 -1 12 -8
21 -7 8 -9 15 -5 15 12 0 105 -71 105 -80 0 -5 -28 -12 -62 -16 -58 -7 -67
-11 -119 -61 -31 -29 -59 -53 -62 -53 -4 0 -7 15 -7 34 0 29 -10 42 -80 106
-45 40 -84 69 -88 65 -4 -3 0 -12 9 -18 9 -7 40 -34 70 -61 50 -45 52 -50 35
-60 -91 -54 -112 -73 -139 -130 -32 -66 -98 -287 -117 -391 -12 -62 -14 -67
-23 -45 -76 184 -198 412 -213 397 -3 -3 8 -27 25 -53 16 -27 28 -50 26 -52
-11 -11 -55 34 -57 57 -4 58 -5 67 -10 81 -14 35 -15 70 -2 70 8 0 53 -18 100
-40 48 -22 89 -38 92 -35 3 3 3 7 1 9 -12 11 -178 86 -191 86 -10 0 -19 16
-26 43 -5 23 -26 109 -46 191 -19 82 -45 166 -56 188 -11 21 -16 38 -12 38 5
0 40 -11 78 -23 121 -41 120 -41 144 -2 12 19 26 35 30 35 5 0 62 -16 127 -36z
m-1667 -122 c0 -23 -4 -32 -12 -30 -9 3 -13 32 -15 94 l-1 89 14 -60 c7 -33
13 -75 14 -93z m4628 26 c-3 -7 -12 -14 -21 -16 -12 -2 -15 1 -11 12 7 19 38
22 32 4z m-98 -8 c0 -5 -5 -10 -11 -10 -5 0 -7 5 -4 10 3 6 8 10 11 10 2 0 4
-4 4 -10z m120 -19 c-6 -12 -16 -19 -21 -15 -6 4 -4 13 7 25 21 24 29 18 14
-10z m-175 9 c-3 -5 -15 -10 -26 -10 -11 0 -17 5 -14 10 3 6 15 10 26 10 11 0
17 -4 14 -10z m59 -25 c4 -11 -2 -15 -26 -15 -26 0 -29 2 -18 15 7 8 18 15 25
15 7 0 15 -7 19 -15z m-74 -5 c0 -5 -2 -10 -4 -10 -3 0 -8 5 -11 10 -3 6 -1
10 4 10 6 0 11 -4 11 -10z m-2179 -237 c8 -40 5 -41 -26 -5 -30 34 -31 44 -3
40 16 -2 24 -12 29 -35z m60 -117 c135 -135 297 -273 381 -324 l37 -23 -29
-67 c-15 -37 -48 -128 -71 -202 l-44 -135 -6 121 c-7 132 -23 195 -69 267 -33
53 -65 66 -111 47 -18 -8 -34 -9 -37 -4 -4 5 -41 36 -82 69 -41 32 -124 108
-183 167 l-108 108 19 28 c29 40 74 79 97 85 54 13 63 7 206 -137z m-131 -185
c52 -47 112 -100 134 -116 l38 -31 -17 -49 c-15 -40 -19 -94 -23 -278 l-4
-229 -26 44 c-35 58 -259 394 -292 438 -14 19 -48 64 -75 100 -27 36 -52 67
-55 70 -3 3 -29 34 -58 69 -57 69 -57 70 -19 151 15 30 38 55 70 76 l47 31 93
-95 c50 -52 135 -133 187 -181z m-344 -46 c59 -70 154 -199 154 -207 0 -14
-194 -69 -266 -75 l-75 -6 7 44 c12 87 34 182 60 267 l26 87 27 -31 c14 -16
45 -52 67 -79z m1059 -5 c3 -5 -12 -17 -35 -26 -23 -10 -47 -28 -54 -43 -34
-65 -59 -180 -65 -292 -6 -114 -7 -116 -49 -183 -23 -37 -42 -73 -42 -79 -1
-7 -12 9 -25 34 -23 44 -23 48 -10 105 21 90 90 282 132 370 27 55 48 86 72
102 36 23 66 28 76 12z m35 -90 c0 -83 -31 -274 -55 -333 -55 -136 -133 -227
-197 -227 l-28 0 20 38 c11 20 35 60 52 87 29 47 32 58 38 175 4 76 14 142 24
169 9 24 16 52 16 61 0 28 48 79 83 88 39 11 47 2 47 -58z m-515 -22 c-18 -17
-28 -40 -36 -83 -16 -85 -6 -266 19 -335 25 -72 69 -157 93 -183 23 -25 24
-37 3 -37 -17 0 -97 81 -139 140 -24 34 -25 42 -26 195 -2 219 11 283 60 310
40 22 55 18 26 -7z m100 -60 c29 -60 36 -92 44 -180 6 -59 8 -114 6 -121 -3
-7 13 -55 36 -107 l41 -95 -41 -37 c-22 -21 -45 -38 -50 -38 -19 0 -90 103
-122 178 -29 67 -34 90 -37 182 -2 57 -1 137 3 178 6 69 9 75 38 93 18 10 36
19 40 19 4 0 23 -33 42 -72z m-153 -500 c-29 -11 -32 -9 -32 30 l1 37 24 -30
c22 -27 23 -31 7 -37z"/>
<path d="M2862 4148 c-5 -7 -12 -35 -13 -63 -4 -43 -2 -50 16 -52 11 -2 14 0
8 3 -15 6 -17 72 -4 93 12 19 39 7 51 -21 l9 -23 0 22 c1 12 -9 29 -21 37 -27
19 -33 20 -46 4z"/>
<path d="M3014 4089 c-18 -35 -8 -55 23 -45 22 7 47 52 38 67 -13 20 -45 8
-61 -22z m36 -18 c-12 -23 -30 -28 -30 -9 0 16 34 52 38 39 2 -5 -2 -19 -8
-30z"/>
<path d="M4050 3387 c0 -2 17 -22 38 -44 66 -69 163 -285 188 -418 3 -19 10
-38 15 -41 12 -7 11 15 0 52 -5 16 -17 56 -27 89 -22 78 -103 249 -142 302
-26 35 -72 73 -72 60z"/>
<path d="M4737 5393 c-4 -3 -7 -85 -7 -181 l0 -175 38 7 c21 3 110 12 198 21
87 8 173 17 189 20 17 2 62 7 100 10 65 5 397 47 745 95 80 11 179 23 220 26
118 11 120 12 120 86 0 35 -5 70 -10 78 -7 10 -10 -7 -10 -57 0 -58 -3 -73
-15 -73 -12 0 -15 15 -15 77 0 96 -12 89 -14 -8 -1 -70 -2 -73 -29 -80 l-27
-7 0 79 c0 46 -4 79 -10 79 -6 0 -10 -34 -10 -81 l0 -80 -32 3 -31 3 2 78 c1
49 -2 77 -8 77 -7 0 -11 -32 -11 -85 0 -81 -1 -85 -22 -85 -13 0 -33 -3 -45
-6 -23 -6 -23 -5 -23 85 0 59 -4 90 -10 86 -5 -3 -10 -44 -10 -89 0 -75 -2
-84 -20 -89 -19 -5 -20 0 -20 94 0 59 -4 99 -10 99 -6 0 -10 -40 -10 -100 0
-135 -19 -133 -22 3 l-2 102 -3 -100 c-4 -93 -13 -122 -35 -109 -4 3 -8 51 -8
106 0 129 -9 123 -12 -7 -2 -68 -7 -100 -15 -103 -10 -3 -13 22 -13 103 0 72
-3 104 -11 100 -5 -4 -9 -17 -8 -28 0 -12 1 -59 0 -104 -1 -61 -4 -83 -14 -83
-10 0 -13 24 -11 100 1 55 -2 103 -7 106 -5 3 -9 -42 -9 -99 0 -114 -1 -116
-67 -117 -22 0 -23 3 -25 113 l-2 112 -3 -95 c-4 -115 -9 -140 -29 -140 -13 0
-15 17 -12 115 2 63 0 115 -4 115 -5 0 -8 -42 -8 -92 0 -98 -6 -138 -21 -138
-5 0 -9 50 -8 111 0 61 -2 113 -5 116 -3 4 -7 -29 -8 -73 -1 -43 -3 -92 -4
-109 -1 -16 -3 -36 -3 -42 -1 -8 -14 -13 -31 -13 l-29 0 -4 123 -3 122 -2
-127 c-1 -77 -6 -128 -12 -128 -12 0 -14 25 -11 153 2 64 -1 97 -8 97 -7 0
-11 -42 -11 -125 0 -77 -4 -125 -10 -125 -6 0 -10 48 -10 125 0 84 -4 125 -11
125 -7 0 -10 -29 -9 -87 4 -147 2 -173 -15 -173 -13 0 -15 22 -15 136 0 74 -4
133 -8 130 -5 -3 -7 -38 -5 -78 2 -40 1 -101 -3 -135 -5 -53 -9 -63 -25 -63
-18 0 -19 9 -19 141 0 77 -4 138 -8 135 -5 -3 -7 -66 -6 -140 3 -122 1 -134
-15 -139 -17 -4 -19 7 -25 129 -4 74 -4 139 -1 144 3 6 1 10 -4 10 -7 0 -11
-49 -11 -144 l0 -144 -35 -4 c-19 -2 -39 -2 -44 1 -5 4 -9 69 -10 145 -1 77
-4 142 -6 145 -3 2 -5 -64 -5 -147 0 -130 -2 -152 -15 -152 -13 0 -15 21 -14
146 0 80 -2 148 -5 151 -3 4 -6 -61 -6 -144 0 -148 0 -151 -22 -157 -13 -3
-33 -6 -45 -6 -23 0 -23 1 -23 150 0 83 -4 150 -9 150 -5 0 -9 -65 -8 -145 0
-80 -1 -147 -4 -149 -2 -2 -16 -7 -31 -11 l-27 -7 -4 158 -3 159 -2 -157 c-1
-97 -6 -158 -12 -158 -6 0 -10 58 -10 155 0 85 -4 155 -8 155 -4 0 -6 -70 -4
-155 2 -105 0 -155 -7 -155 -10 0 -16 145 -11 268 1 24 -3 42 -9 42 -7 0 -11
-53 -11 -160 0 -100 -4 -160 -10 -160 -6 0 -10 60 -10 160 0 88 -3 160 -7 160
-5 0 -7 -72 -6 -160 2 -153 1 -160 -17 -160 -19 0 -20 8 -20 162 0 89 -2 159
-5 157 -3 -4 -13 -202 -15 -321 0 -5 -10 -8 -23 -8 l-23 0 4 170 c2 94 1 170
-1 170 -2 0 -7 -3 -10 -7z"/>
<path d="M6463 5335 c0 -36 -2 -67 -5 -70 -3 -3 -18 -7 -34 -8 l-29 -2 1 68
c1 37 -2 67 -7 67 -5 0 -9 -17 -10 -37 0 -21 -2 -51 -3 -66 -4 -61 -3 -61 369
-11 61 8 142 19 180 24 39 5 86 11 105 14 19 3 80 10 135 16 91 9 179 27 148
29 -7 1 -13 8 -13 16 0 8 -4 15 -10 15 -5 0 -9 -5 -7 -12 1 -6 -6 -14 -15 -16
-11 -2 -18 2 -18 12 0 9 -4 16 -10 16 -5 0 -10 -9 -10 -20 0 -11 -5 -20 -11
-20 -6 0 -8 9 -4 20 4 11 2 20 -4 20 -6 0 -11 -9 -11 -20 0 -28 -20 -25 -21 3
-1 21 -1 21 -8 -3 -4 -14 -13 -25 -21 -25 -8 0 -17 11 -21 25 l-7 25 -1 -27
c-1 -36 -31 -39 -31 -3 0 14 -4 25 -10 25 -5 0 -10 -14 -10 -31 0 -19 -4 -28
-11 -23 -6 3 -9 17 -6 30 2 13 1 24 -4 24 -10 0 -22 -37 -15 -49 3 -5 -8 -11
-25 -15 -61 -12 -68 -9 -72 32 l-4 37 -1 -38 c-2 -48 -24 -45 -33 4 -6 34 -6
34 -8 -8 -1 -54 -21 -57 -21 -3 0 53 -18 51 -22 -2 -3 -42 -3 -42 -45 -46
l-42 -3 3 45 c1 25 -1 46 -6 46 -4 0 -8 -22 -8 -50 0 -27 -4 -50 -10 -50 -5 0
-10 23 -10 51 0 30 -4 48 -10 44 -5 -3 -7 -25 -5 -49 4 -37 1 -45 -15 -49 -17
-4 -19 2 -23 52 l-3 56 -2 -57 -2 -58 -35 0 c-34 0 -35 1 -35 39 0 70 -15 81
-20 16 -4 -46 -9 -61 -22 -63 -14 -3 -16 5 -15 57 1 34 -1 61 -5 61 -5 0 -8
-27 -8 -60 0 -37 -4 -60 -11 -60 -7 0 -10 21 -7 59 1 33 0 63 -5 67 -4 4 -7
-22 -7 -59 0 -37 -5 -69 -11 -73 -7 -4 -10 4 -9 22 4 58 0 114 -8 114 -5 0 -9
-29 -9 -65z"/>
<path d="M1546 5377 c-5 -9 -5 -29 0 -45 7 -25 8 -26 11 -4 3 12 3 32 0 45 -3
19 -4 20 -11 4z"/>
<path d="M1737 5383 c-2 -5 0 -21 4 -38 7 -29 7 -29 8 8 1 35 -3 46 -12 30z"/>
<path d="M7278 5305 c-2 -1 -37 -6 -78 -9 -41 -4 -118 -13 -170 -21 -52 -7
-140 -18 -195 -24 -161 -18 -418 -52 -437 -57 -16 -5 -18 -24 -18 -221 l0
-215 93 6 c50 3 121 8 157 11 36 2 103 7 150 10 47 3 101 7 120 10 19 2 85 6
145 9 237 12 265 17 270 40 3 11 4 120 3 240 -3 196 -5 219 -20 222 -9 1 -18
1 -20 -1z m24 -167 c2 -84 2 -185 0 -224 -3 -71 -3 -72 -34 -78 -19 -4 -34 -2
-39 5 -6 11 -1 413 6 437 3 6 18 12 34 12 l30 0 3 -152z m-88 94 c0 -26 -1
-126 -2 -223 l-2 -177 -29 -4 c-28 -4 -29 -2 -33 36 -1 23 -2 125 0 229 l3
187 32 0 c32 0 32 -1 31 -48z m-84 14 c0 -21 -6 -24 -69 -35 -90 -14 -101 -14
-101 3 0 25 -55 3 -56 -23 -2 -28 0 -28 -61 -36 l-53 -7 0 32 c0 25 -4 31 -17
28 -10 -2 -19 -14 -21 -28 -5 -34 -9 -37 -69 -44 -51 -6 -52 -6 -55 21 -2 20
-9 28 -23 29 -47 4 -50 5 -28 14 12 5 50 12 85 15 112 11 131 14 268 30 74 10
137 19 139 21 2 2 17 4 33 4 23 0 28 -4 28 -24z m-187 -68 c3 -18 3 -103 2
-188 -4 -195 -3 -182 -15 -175 -13 8 -14 395 -1 395 5 0 11 -15 14 -32z m187
-163 l0 -195 -29 0 -29 0 0 178 c0 99 3 183 6 189 4 6 16 13 27 16 11 2 21 5
23 6 1 0 2 -87 2 -194z m-580 -19 c0 -126 -4 -207 -10 -211 -9 -6 -13 99 -11
310 0 101 1 105 11 105 6 0 10 -75 10 -204z m510 14 c0 -104 -4 -190 -8 -190
-10 0 -16 355 -7 370 3 5 8 10 11 10 2 0 4 -85 4 -190z m-548 58 c2 -68 2
-160 0 -206 -3 -79 -4 -83 -25 -80 -22 3 -22 5 -22 178 0 212 2 230 26 230 16
0 18 -12 21 -122z m268 -86 c0 -110 -4 -181 -9 -177 -5 3 -10 92 -10 198 -1
130 2 187 9 177 5 -8 10 -94 10 -198z m244 192 c3 -9 6 -91 6 -184 l0 -168
-30 -4 c-17 -3 -32 -2 -34 1 -2 3 -4 85 -5 183 -2 162 -1 177 16 181 33 9 41
7 47 -9z m-574 -193 l0 -199 -24 -4 c-14 -3 -27 0 -29 6 -4 10 -2 371 1 389 1
4 13 7 27 7 l25 0 0 -199z m160 -1 c0 -183 -1 -190 -20 -190 -19 0 -20 7 -21
98 -1 109 -1 263 0 275 1 4 10 7 21 7 19 0 20 -7 20 -190z m240 -4 c0 -156 -1
-165 -20 -171 -11 -3 -23 -4 -28 -1 -9 5 -7 310 3 325 3 6 15 11 26 11 18 0
19 -8 19 -164z m59 -1 c1 -159 1 -165 -19 -165 -23 0 -23 6 -24 212 -1 115 0
118 21 118 21 0 22 -2 22 -165z m-161 -10 c-1 -165 -1 -165 -24 -165 -23 0
-23 1 -26 161 -2 88 -1 163 1 165 2 2 15 4 27 4 l23 0 -1 -165z m-68 -10 l0
-165 -24 2 c-14 1 -26 9 -28 18 -2 8 -2 81 0 163 l3 147 25 0 24 0 0 -165z"/>
<path d="M2970 5043 l0 -243 33 -1 c17 -1 41 -3 52 -5 11 -1 58 -5 105 -9 47
-3 182 -15 300 -25 118 -11 251 -22 295 -25 109 -8 285 -25 315 -31 14 -3 70
-9 125 -14 55 -4 176 -17 270 -28 93 -11 171 -19 172 -18 1 1 3 85 5 186 l3
184 -135 23 c-74 13 -180 29 -235 37 -55 8 -165 26 -245 39 -80 14 -158 28
-175 30 -91 16 -360 58 -425 68 -41 6 -97 15 -125 20 -110 22 -223 41 -277 48
l-58 7 0 -243z m223 191 c82 -15 246 -41 365 -58 l217 -31 3 -52 3 -51 -43 5
c-24 3 -70 11 -103 17 -60 12 -60 12 -63 49 -3 29 -7 37 -23 37 -10 0 -22 1
-26 2 -5 1 -23 5 -40 9 -25 5 -33 4 -33 -7 0 -21 -53 -17 -73 6 -9 11 -28 20
-42 20 -20 0 -25 -5 -25 -25 0 -24 -2 -25 -42 -19 -62 8 -68 11 -68 33 0 21
-51 37 -157 48 -47 5 -53 8 -53 29 0 27 -19 28 203 -12z m-181 -194 c0 -221 0
-220 -14 -220 -10 0 -13 40 -12 168 1 213 2 224 15 220 9 -3 12 -53 11 -168z
m44 -32 c-1 -143 -4 -192 -13 -195 -10 -4 -13 39 -13 191 0 157 3 196 13 196
11 0 14 -38 13 -192z m45 -7 c0 -173 -3 -203 -17 -188 -8 8 -15 367 -8 379 17
28 24 -25 25 -191z m79 85 c1 -50 1 -134 2 -186 l1 -95 -29 0 -29 0 -3 191 -2
191 30 -5 30 -4 0 -92z m183 -40 c8 -179 4 -261 -13 -261 -13 0 -15 30 -18
188 -2 153 0 187 11 187 11 0 15 -27 20 -114z m131 -83 c3 -113 2 -174 -5
-179 -6 -3 -12 -4 -14 -3 -6 7 -13 329 -8 350 13 48 22 -8 27 -168z m58 135
c3 -24 6 -107 8 -185 1 -139 1 -143 -20 -143 -11 0 -23 6 -25 13 -2 6 -6 90
-7 185 -3 169 -3 172 18 172 18 0 22 -8 26 -42z m293 8 c2 -11 3 -97 2 -191
-2 -163 -3 -170 -22 -170 -19 0 -20 8 -23 197 -2 193 -2 196 18 191 11 -3 22
-15 25 -27z m-589 14 c12 0 19 -217 9 -284 -6 -40 -8 -42 -35 -38 -28 4 -29 7
-32 61 -2 31 -2 105 0 164 3 107 4 109 25 103 12 -3 27 -6 33 -6z m172 4 c22
-6 22 -9 22 -176 l0 -169 -32 3 -33 3 -3 173 c-3 183 -4 179 46 166z m557 -26
c7 -7 -6 -9 -39 -4 -27 3 -57 6 -67 6 -11 0 -19 6 -19 13 0 11 11 12 58 4 31
-5 62 -14 67 -19z m-672 0 c2 -7 5 -79 5 -160 1 -141 0 -148 -18 -148 -19 0
-20 8 -20 160 0 130 3 160 14 160 8 0 16 -6 19 -12z m717 -183 c0 -141 -3
-185 -12 -185 -10 0 -14 45 -16 185 -3 162 -1 185 12 185 14 0 16 -24 16 -185z
m135 160 c44 -8 98 -16 120 -19 22 -3 107 -17 188 -31 82 -14 151 -25 153 -25
2 0 3 -75 2 -167 -3 -142 -5 -168 -18 -168 -13 0 -15 23 -16 142 -1 78 -5 146
-8 151 -3 5 -34 12 -68 16 -42 4 -67 12 -76 23 -10 14 -30 18 -100 18 -119 2
-293 26 -299 42 -9 23 6 46 25 38 9 -3 53 -13 97 -20z m-264 5 c5 0 9 -74 9
-171 l0 -170 -22 3 c-23 3 -23 5 -26 177 -2 156 -1 173 14 167 8 -3 20 -6 25
-6z m67 -6 c22 -6 22 -9 22 -176 l0 -169 -27 3 -28 3 -3 173 c-1 94 1 172 5
172 5 0 18 -3 31 -6z m-348 -170 c0 -145 0 -145 -22 -142 -22 3 -23 6 -26 146
l-3 142 26 0 25 0 0 -146z m52 114 c2 -13 3 -75 3 -138 -1 -100 -3 -115 -18
-118 -15 -3 -17 10 -17 131 0 73 3 137 7 140 12 13 21 7 25 -15z m50 -115 c3
-137 0 -162 -21 -149 -7 5 -11 57 -11 147 0 113 3 139 14 139 12 0 15 -27 18
-137z m53 117 c3 -5 7 -67 8 -137 2 -126 2 -128 -20 -131 -23 -3 -23 -3 -23
137 0 116 3 141 14 141 8 0 18 -4 21 -10z m315 -145 c0 -148 -1 -155 -20 -155
-11 0 -20 3 -21 8 0 4 -1 73 -3 155 l-2 147 23 0 23 0 0 -155z m69 132 c7 -9
10 -63 8 -155 l-2 -142 -27 0 -28 0 0 155 c0 145 1 155 19 155 10 0 24 -6 30
-13z m59 -3 c22 -6 22 -9 22 -156 l0 -150 -22 6 c-13 3 -26 6 -30 6 -5 0 -8
68 -8 150 0 83 3 150 8 150 4 0 17 -3 30 -6z m132 -154 c0 -100 -4 -160 -10
-160 -6 0 -10 31 -11 73 -1 67 0 222 1 240 0 4 5 7 10 7 6 0 10 -60 10 -160z
m-62 144 c22 -6 22 -9 22 -150 l0 -144 -25 0 c-19 0 -25 5 -26 23 0 12 -3 79
-5 150 -3 70 -1 127 3 127 4 0 18 -3 31 -6z m92 -155 c0 -88 -4 -158 -8 -155
-12 7 -14 316 -2 316 6 0 10 -58 10 -161z m40 -5 c0 -96 -4 -154 -10 -154 -6
0 -10 60 -10 161 0 104 3 158 10 154 6 -4 10 -68 10 -161z m44 130 c14 -5 16
-28 16 -145 0 -129 -1 -139 -19 -139 -24 0 -29 35 -25 175 2 61 4 111 4 113 0
3 7 2 24 -4z m104 -20 c9 -2 12 -39 12 -139 l0 -135 -40 0 -40 0 0 145 0 145
28 -6 c15 -3 33 -7 40 -10z"/>
<path d="M6140 5169 c-167 -21 -316 -40 -440 -54 -314 -35 -404 -46 -410 -50
-3 -2 -62 -9 -131 -14 -224 -20 -419 -45 -420 -56 -4 -54 -5 -260 -1 -298 l5
-48 91 5 c50 4 219 15 376 26 157 10 323 21 370 24 182 12 648 46 702 52 l57
6 -4 36 c-2 21 -4 115 -4 210 l-1 172 -62 -1 c-35 -1 -92 -5 -128 -10z m130
-44 c0 -33 -2 -35 -32 -35 -18 0 -42 -7 -52 -15 -11 -8 -37 -15 -58 -15 -36 0
-38 2 -38 31 0 28 -2 30 -27 25 -16 -2 -44 -7 -64 -11 -24 -3 -38 -12 -42 -24
-3 -14 -22 -20 -83 -30 -44 -7 -89 -14 -100 -17 -15 -3 -23 2 -27 16 -10 38
-77 20 -77 -21 0 -18 -37 -29 -96 -29 -33 0 -34 1 -34 39 0 45 0 45 130 57 41
3 84 8 95 10 11 3 67 9 125 14 58 6 137 15 175 20 95 14 124 17 168 19 36 1
37 0 37 -34z m41 28 c1 -5 3 -90 4 -190 2 -148 0 -183 -11 -183 -10 0 -14 39
-16 190 -2 147 0 190 10 190 6 0 13 -3 13 -7z m-233 -225 c-3 -168 -4 -173
-24 -176 -22 -3 -22 -1 -23 164 0 91 2 170 5 175 3 5 14 9 25 9 19 0 20 -6 17
-172z m-60 -8 l2 -170 -25 0 -25 0 0 163 c0 90 3 167 7 170 3 4 14 7 23 7 15
0 17 -19 18 -170z m-488 72 c0 -142 -12 -272 -24 -272 -11 0 -12 82 -7 328 1
21 6 32 16 32 12 0 15 -16 15 -88z m745 -67 l0 -155 -32 0 -33 0 0 155 0 155
33 0 32 0 0 -155z m-831 137 c13 -21 -20 -32 -143 -47 -73 -9 -135 -14 -138
-11 -3 3 -3 12 0 19 4 10 28 17 74 20 37 4 88 10 113 15 60 13 88 14 94 4z
m36 -166 c0 -96 -4 -177 -9 -180 -14 -9 -19 15 -16 74 2 30 4 106 4 168 1 67
5 112 11 112 6 0 10 -65 10 -174z m255 -3 l7 -163 -26 0 c-29 0 -28 -5 -31
120 -3 128 6 199 24 203 9 2 17 3 17 3 1 -1 5 -74 9 -163z m463 15 c2 -107 0
-138 -10 -139 -7 0 -21 -2 -30 -4 -15 -3 -17 11 -20 136 -3 142 -1 150 37 146
19 -2 20 -10 23 -139z m-284 30 c-1 -57 -3 -124 -3 -150 -1 -27 -5 -48 -11
-48 -6 0 -10 57 -10 150 0 120 3 150 14 150 11 0 13 -21 10 -102z m46 -27 c0
-71 -3 -136 -6 -145 -17 -43 -24 -3 -24 129 0 122 2 145 15 145 13 0 15 -21
15 -129z m160 -12 c0 -108 -3 -140 -12 -137 -9 3 -14 40 -16 128 -3 127 0 150
18 150 6 0 10 -51 10 -141z m-1060 96 c0 -20 -16 -35 -40 -35 -4 0 -10 9 -13
20 -4 16 -11 19 -29 15 -13 -2 -58 -9 -101 -14 -43 -5 -82 -12 -85 -16 -4 -3
-5 -71 -4 -151 3 -140 3 -144 -17 -144 -20 0 -21 5 -21 160 0 145 2 160 18
161 9 0 76 8 147 18 72 10 133 16 138 14 4 -2 7 -15 7 -28z m48 -135 c-3 -150
-5 -170 -19 -170 -15 0 -17 18 -18 161 0 89 2 165 5 170 3 5 12 9 20 9 14 0
15 -23 12 -170z m42 -1 c0 -132 -3 -170 -12 -167 -10 4 -14 49 -16 171 -2 144
0 167 13 167 13 0 15 -24 15 -171z m680 26 c0 -80 -4 -145 -8 -145 -5 0 -9 65
-11 145 -1 98 1 145 8 145 7 0 11 -49 11 -145z m49 0 c-1 -117 -4 -145 -15
-145 -11 0 -14 27 -14 145 0 123 2 145 15 145 13 0 15 -22 14 -145z m-439 -21
l0 -155 -22 3 c-23 3 -23 4 -20 148 4 137 8 159 35 160 4 0 7 -70 7 -156z
m357 14 c1 -116 -1 -137 -14 -142 -9 -4 -19 -4 -22 0 -7 7 -19 254 -13 272 3
7 14 12 26 10 20 -3 21 -9 23 -140z m-417 -17 l0 -149 -30 -4 c-17 -3 -32 -2
-35 0 -8 8 -6 288 2 295 3 4 19 7 35 7 l28 0 0 -149z m-82 -8 c-3 -145 -3
-148 -25 -151 -23 -3 -23 -3 -23 141 0 79 3 147 7 150 3 4 15 7 25 7 17 0 18
-9 16 -147z m-62 -4 c-2 -140 -2 -142 -26 -151 -48 -18 -51 -9 -48 142 3 148
2 146 54 149 20 1 21 -3 20 -140z m434 6 l0 -135 -34 0 -34 0 0 127 c-1 70 1
130 4 135 3 4 18 8 35 8 l29 0 0 -135z m-680 -25 l0 -150 -35 0 -35 0 0 143
c0 79 2 146 5 148 2 3 18 6 35 7 l30 2 0 -150z m597 23 c-2 -124 -3 -128 -24
-131 -23 -3 -23 -3 -23 127 l0 131 25 0 25 0 -3 -127z m-717 -39 l0 -144 -35
0 -35 0 0 144 0 145 28 3 c15 2 30 2 35 0 4 -2 7 -68 7 -148z m32 4 c2 -95 0
-139 -8 -142 -8 -3 -11 37 -11 137 0 78 2 146 5 152 9 15 11 -3 14 -147z m158
-3 l0 -135 -25 0 c-29 0 -27 -8 -30 140 -2 117 1 130 38 130 15 0 17 -13 17
-135z"/>
<path d="M280 4981 c0 -6 10 -11 23 -11 38 0 260 -19 300 -26 l37 -6 0 -309 0
-309 -25 0 c-17 0 -25 6 -26 18 -1 9 -2 121 -3 247 0 127 -5 236 -9 243 -5 8
-34 12 -82 12 l-74 0 -3 38 c-2 29 -7 37 -23 38 -11 1 -42 3 -70 5 l-50 3 -3
-305 -2 -306 72 -6 c40 -2 128 -6 196 -6 l122 -2 -2 328 -3 328 -60 6 c-33 4
-89 10 -125 13 -36 3 -93 9 -127 12 -42 4 -63 2 -63 -5z m62 -113 c3 -34 3
-378 -1 -521 -1 -25 -4 -28 -28 -25 l-28 3 2 200 c1 110 3 242 3 293 0 90 1
92 24 92 20 0 24 -6 28 -42z m60 14 c3 -9 6 -140 7 -290 l2 -274 -23 4 -23 3
-3 288 c-2 276 -2 287 17 287 10 0 21 -8 23 -18z m141 -62 l27 0 0 -250 0
-250 -74 0 -75 0 0 249 c-1 188 2 251 12 255 6 3 28 3 47 1 19 -3 47 -5 63 -5z"/>
<path d="M7185 4764 c-11 -2 -96 -8 -190 -14 -173 -10 -445 -27 -546 -34 -31
-2 -62 -6 -68 -10 -8 -5 -11 -77 -11 -233 l0 -226 103 7 c56 3 257 8 447 11
190 3 354 8 365 10 19 4 20 11 17 212 -2 114 -5 209 -7 211 -2 2 -58 1 -126
-3 -107 -7 -122 -10 -126 -26 -4 -15 -15 -19 -49 -19 -37 0 -44 3 -44 20 0 15
-7 20 -25 20 -14 0 -25 -4 -25 -8 0 -14 -41 -11 -47 4 -3 8 -18 14 -34 14 -22
0 -29 -5 -29 -20 0 -17 -7 -20 -50 -20 -38 0 -50 4 -50 15 0 21 -39 19 -47 -2
-11 -29 -24 -33 -113 -33 l-85 0 1 -185 1 -185 -29 0 -28 0 2 213 3 212 95 7
c52 3 129 7 170 8 41 1 109 5 150 10 99 12 178 18 335 26 133 7 219 23 115 22
-30 0 -64 -2 -75 -4z m-353 -96 c3 -19 3 -292 -1 -365 0 -13 -7 -23 -13 -23
-10 0 -13 45 -11 198 0 108 1 200 2 205 2 16 19 5 23 -15z m456 -180 l2 -198
-62 0 -63 0 0 192 0 193 30 6 c17 4 44 6 60 6 l30 -2 3 -197z m-138 -3 c0
-123 -4 -195 -10 -195 -5 0 -10 3 -11 8 -4 26 -6 368 -2 375 18 29 23 -14 23
-188z m-468 18 c3 -179 1 -223 -11 -223 -4 0 -8 88 -10 195 -2 129 1 195 8
195 6 0 11 -61 13 -167z m248 -28 c0 -110 -4 -195 -9 -195 -5 0 -10 86 -10
195 -1 127 2 195 9 195 6 0 10 -69 10 -195z m180 5 l0 -190 -25 0 -25 0 0 190
0 190 25 0 25 0 0 -190z m-214 -10 l2 -190 -24 0 -24 0 0 190 0 190 23 0 c22
0 22 0 23 -190z m-106 -11 c0 -167 -1 -179 -18 -179 -17 0 -20 12 -25 113 -10
174 -9 245 6 250 34 12 37 -3 37 -184z m-60 1 c0 -153 -2 -180 -15 -180 -13 0
-15 27 -15 180 0 153 2 180 15 180 13 0 15 -27 15 -180z m312 168 c5 -14 0
-330 -5 -335 -2 -1 -22 -5 -44 -8 -28 -3 -42 -1 -45 8 -3 11 -3 52 1 274 l1
62 38 4 c20 2 40 4 43 5 4 1 9 -4 11 -10z m-523 -195 l1 -163 -30 0 -30 0 0
174 c0 173 0 175 23 178 12 2 25 -3 29 -12 4 -8 7 -88 7 -177z m61 47 c6 -177
4 -197 -20 -203 -16 -4 -19 3 -23 52 -8 88 -9 280 -2 292 4 5 14 9 23 7 15 -3
18 -24 22 -148z m68 -27 l3 -173 -25 0 c-24 0 -26 4 -27 48 -3 77 -3 152 -1
230 2 70 3 73 25 70 22 -3 22 -5 25 -175z"/>
<path d="M6150 4699 c-41 -4 -127 -10 -190 -13 -147 -7 -447 -25 -525 -30 -33
-3 -114 -7 -180 -11 -66 -3 -136 -8 -155 -10 -19 -2 -107 -9 -194 -15 -88 -6
-162 -13 -166 -15 -6 -3 -6 -150 -2 -332 l2 -63 43 5 c23 2 146 7 272 9 992
22 1261 30 1269 37 9 8 10 88 7 372 l-1 78 -52 -3 c-29 -1 -87 -5 -128 -9z
m170 -34 c0 -29 -9 -32 -127 -39 l-83 -6 0 29 c0 27 3 30 43 35 52 8 149 12
160 8 4 -2 7 -14 7 -27z m-266 -7 c3 -13 6 -39 6 -59 0 -34 -2 -37 -37 -43
-80 -13 -83 -11 -83 41 l0 46 -110 -7 c-74 -4 -110 -3 -110 4 0 17 16 20 160
29 74 4 142 9 151 10 10 0 19 -9 23 -21z m41 -188 c0 -154 -3 -204 -12 -207
-10 -4 -13 42 -13 207 0 165 3 211 13 208 9 -4 12 -54 12 -208z m-391 122 c-1
-31 -3 -121 -3 -200 -1 -131 -3 -143 -18 -140 -16 3 -18 18 -19 143 -1 208 5
263 25 258 14 -3 17 -15 15 -61z m-104 29 c0 -36 -12 -41 -111 -41 -65 0 -79
3 -79 16 0 12 -10 14 -52 12 -49 -3 -53 -5 -56 -30 -3 -27 -6 -28 -58 -28 -30
0 -57 -1 -61 -2 -5 -2 -9 12 -11 30 -3 27 -7 32 -30 33 -74 3 56 18 207 24 91
4 168 9 170 11 2 2 22 4 43 4 35 0 38 -2 38 -29z m50 -166 c0 -179 -1 -195
-17 -195 -17 0 -18 14 -16 172 1 95 3 183 3 196 0 13 6 22 15 22 13 0 15 -28
15 -195z m266 161 c5 -14 8 -149 6 -278 l-2 -78 -45 0 -45 0 0 180 c0 174 1
180 20 180 20 0 20 -4 14 -175 -4 -123 -2 -175 5 -175 8 0 11 56 11 173 0 96
3 177 7 180 10 11 23 8 29 -7z m-860 -185 c-3 -97 -5 -179 -6 -183 0 -5 -5 -8
-11 -8 -7 0 -10 55 -8 178 3 187 5 206 21 196 6 -4 8 -72 4 -183z m44 87 c0
-70 3 -98 10 -88 5 8 10 48 10 88 0 63 2 72 18 72 18 0 19 -11 18 -172 -1
-171 -1 -173 -23 -176 -22 -3 -23 0 -25 80 l-2 83 -3 -80 c-4 -73 -12 -94 -36
-95 -5 0 -6 8 -3 18 3 9 6 94 7 187 2 174 3 185 20 185 5 0 9 -45 9 -102z
m659 -68 c0 -137 -3 -173 -15 -185 -9 -8 -17 -15 -20 -15 -2 0 -4 81 -4 179 0
163 2 180 18 184 9 3 18 5 20 6 1 0 2 -76 1 -169z m51 -10 c0 -177 0 -180 -21
-180 -21 0 -21 1 -16 178 3 97 6 178 6 180 1 1 8 2 16 2 13 0 15 -27 15 -180z
m450 5 l0 -175 -34 0 -33 0 -1 169 0 170 27 4 c14 2 29 5 34 6 4 0 7 -78 7
-174z m60 0 l0 -175 -23 0 c-21 0 -22 3 -21 88 1 48 2 126 3 175 1 80 3 87 21
87 19 0 20 -7 20 -175z m-1302 153 c-3 -9 -38 -15 -109 -18 -57 -3 -109 -9
-116 -13 -8 -5 -11 -50 -9 -155 2 -161 0 -182 -20 -182 -11 0 -13 35 -11 183
l2 182 65 6 c128 11 202 10 198 -3z m1160 -160 l2 -168 -34 0 -35 0 1 163 c0
168 3 180 43 175 19 -3 20 -12 23 -170z m-784 -28 c-2 -80 -3 -148 -4 -152 0
-5 -4 -8 -10 -8 -12 0 -14 332 -3 344 15 15 21 -42 17 -184z m-38 43 c-3 -76
-6 -153 -6 -171 0 -25 -4 -33 -16 -30 -17 3 -21 68 -16 261 2 71 4 77 23 77
21 0 21 -2 15 -137z m-386 -48 c0 -96 -4 -165 -9 -165 -6 0 -10 66 -10 156 -1
142 2 174 15 174 2 0 4 -74 4 -165z m50 0 c0 -140 -2 -165 -15 -165 -11 0 -15
13 -16 48 -3 90 2 265 7 274 18 29 24 -9 24 -157z m578 8 l-3 -158 -42 -3 -43
-3 0 159 0 158 45 3 46 2 -3 -158z m-738 -17 l0 -163 -27 1 -28 1 -3 163 -2
162 30 0 30 0 0 -164z m40 3 c0 -118 -3 -160 -12 -157 -10 4 -12 74 -8 311 0
4 5 7 10 7 6 0 10 -60 10 -161z m34 11 c-1 -47 -3 -105 -3 -129 -1 -24 -3 -42
-6 -39 -8 7 -13 289 -6 308 9 25 17 -50 15 -140z m556 -5 l0 -155 -40 0 -40 0
0 155 0 155 40 0 40 0 0 -155z m-190 -10 l0 -145 -29 0 -28 0 3 137 c3 141 6
148 47 152 4 1 7 -64 7 -144z m682 23 c4 -145 2 -158 -23 -158 -18 0 -19 10
-19 140 0 132 1 140 19 140 18 0 20 -9 23 -122z m72 60 c-1 -35 -2 -97 -3
-139 -1 -72 -2 -76 -23 -75 -22 1 -23 4 -26 125 -2 67 -1 129 2 137 3 8 16 14
28 14 22 0 23 -4 22 -62z m-826 -90 l-3 -143 -25 0 -25 0 -3 129 c-1 72 0 136
2 143 3 7 17 13 31 13 l26 0 -3 -142z"/>
<path d="M315 4250 c-27 -3 -5 -6 65 -10 l105 -5 3 -58 3 -58 -63 3 c-61 3
-63 4 -61 30 1 24 -2 26 -43 30 -25 2 -47 1 -50 -1 -2 -2 -4 -143 -4 -312 l0
-308 83 5 c45 3 132 9 192 12 l110 7 1 333 1 332 -111 1 c-61 1 -129 2 -151 3
-22 1 -58 -1 -80 -4z m262 -332 c2 -175 0 -319 -5 -320 -4 0 -19 -2 -34 -3
l-28 -2 0 146 c0 80 -1 224 -3 319 -1 95 -1 175 1 177 2 2 18 2 35 2 l32 -2 2
-317z m61 -1 c2 -312 2 -317 -18 -317 -23 0 -21 -30 -25 385 -2 132 -1 244 2
248 3 4 12 7 21 5 15 -3 17 -34 20 -321z m-294 -38 c-1 -158 -5 -285 -10 -287
-5 -1 -10 124 -12 289 -2 231 0 290 10 287 10 -4 13 -68 12 -289z m-35 81 c-3
-246 -10 -380 -20 -380 -5 0 -7 87 -5 193 2 105 5 237 5 292 1 70 4 96 11 85
6 -9 10 -87 9 -190z m181 -111 l0 -259 -30 0 -30 0 0 93 c0 52 3 168 7 259 6
165 6 166 30 166 l23 0 0 -259z m-71 -4 l-2 -255 -28 0 -29 0 0 255 0 255 31
0 30 0 -2 -255z"/>
<path d="M7009 4226 c-2 -2 -143 -7 -314 -11 -170 -4 -313 -9 -317 -12 -5 -2
-8 -103 -8 -223 0 -120 3 -221 8 -223 17 -11 924 -20 931 -9 7 11 8 459 0 466
-5 5 -295 16 -300 12z m-145 -22 c9 -3 16 -12 16 -20 0 -11 -19 -14 -84 -14
l-85 0 -3 -37 c-3 -33 -6 -38 -28 -38 -21 0 -26 5 -28 33 -3 31 -4 32 -53 32
-42 0 -49 3 -49 20 0 18 8 20 148 23 81 1 148 4 149 5 1 1 8 -1 17 -4z m266
-14 c0 -19 -7 -20 -95 -20 -88 0 -95 1 -95 20 0 19 7 20 95 20 88 0 95 -1 95
-20z m75 -210 l0 -225 -25 3 c-14 2 -26 5 -26 5 -4 5 -10 424 -7 435 3 8 16
12 32 10 l26 -3 0 -225z m95 7 c0 -123 -2 -226 -5 -228 -2 -3 -20 -3 -40 -1
l-35 4 0 217 c0 120 3 221 7 224 3 4 21 7 40 7 l33 0 0 -223z m-810 -13 c0
-207 -1 -214 -20 -214 -19 0 -20 7 -20 214 0 211 4 235 33 219 4 -2 7 -101 7
-219z m41 149 c6 -291 5 -354 -3 -360 -6 -3 -14 1 -19 8 -10 16 -12 412 -2
422 17 18 23 1 24 -70z m389 70 c1 -74 2 -377 1 -400 0 -18 -5 -33 -11 -33 -6
0 -10 80 -10 220 0 140 4 220 10 220 6 0 10 -3 10 -7z m-490 -10 c1 -15 2
-309 1 -365 -1 -51 -3 -58 -21 -58 -23 0 -21 -11 -22 210 0 229 -1 220 22 220
11 0 20 -3 20 -7z m385 -323 c-2 -19 -3 -50 -4 -67 -1 -18 -5 -33 -11 -33 -12
0 -14 382 -2 394 8 8 22 -237 17 -294z m68 265 c3 -16 3 -86 2 -155 -5 -232
-2 -210 -30 -210 l-25 0 0 193 c0 107 3 196 6 200 17 16 43 1 47 -28z m160
-91 c6 -141 -1 -284 -14 -284 -5 0 -9 92 -9 205 0 113 4 205 9 205 4 0 11 -57
14 -126z m-403 -86 c0 -104 -4 -178 -9 -178 -6 0 -10 81 -10 193 0 127 3 187
9 177 5 -8 10 -95 10 -192z m132 80 c2 -123 2 -190 -1 -240 -1 -21 -5 -25 -21
-21 -11 3 -20 8 -20 12 -4 98 -5 362 -2 366 3 3 14 5 24 5 16 0 18 -11 20
-122z m234 87 c7 -41 -1 -355 -10 -355 -3 0 -17 0 -31 0 l-25 0 0 195 0 195
30 0 c25 0 30 -4 36 -35z m74 -38 c0 -41 3 -129 7 -195 5 -109 4 -122 -10
-122 -15 0 -17 20 -17 195 0 123 4 195 10 195 6 0 10 -31 10 -73z m52 -42 c4
-145 -4 -275 -17 -278 -6 -1 -11 70 -13 196 -2 168 0 197 12 197 12 0 15 -22
18 -115z m-530 68 c3 -21 5 -105 4 -188 l-1 -150 -25 0 -25 0 -3 188 -2 187
24 0 c20 0 25 -6 28 -37z m110 -125 c2 -57 2 -127 0 -155 -3 -48 -5 -53 -27
-53 -30 0 -33 17 -34 183 l-1 127 29 0 30 0 3 -102z"/>
<path d="M5979 4206 c-2 -2 -150 -6 -329 -10 -682 -12 -895 -18 -907 -21 -10
-3 -13 -52 -13 -200 l0 -195 178 -1 c267 -1 533 -5 1000 -14 l422 -7 -1 226
-1 226 -172 0 c-95 0 -175 -2 -177 -4z m322 -16 c11 0 12 -70 2 -71 -5 -1 -30
-2 -56 -4 -43 -2 -49 0 -58 22 -8 22 -12 23 -59 17 -33 -4 -59 -2 -74 5 -12 7
-44 11 -72 9 -47 -3 -49 -4 -52 -35 -3 -29 -7 -33 -33 -33 -19 0 -29 5 -29 15
0 11 -11 15 -39 15 -30 0 -40 -4 -44 -20 -4 -16 -14 -20 -50 -20 -42 0 -46 2
-49 28 l-3 27 -94 0 c-62 0 -96 4 -98 12 -2 6 0 13 4 16 4 3 177 8 383 12 206
4 377 9 379 11 3 3 11 2 19 -1 7 -3 18 -5 23 -5z m-871 -30 c0 -18 -6 -20 -77
-20 -43 -1 -102 -3 -131 -6 -47 -4 -53 -2 -50 13 3 15 17 19 92 23 48 3 106 6
127 8 34 2 39 0 39 -18z m47 -172 c-2 -140 -6 -193 -15 -196 -7 -2 -12 0 -13
5 0 4 -1 92 -2 196 -2 171 -1 187 15 187 16 0 17 -16 15 -192z m-368 165 c10
-17 10 -17 11 0 0 12 6 17 17 15 16 -3 18 -20 17 -188 -1 -152 -3 -185 -15
-185 -14 0 -14 0 -18 250 l-1 81 -27 -2 c-16 -1 -38 -3 -50 -3 -16 -1 -23 -7
-23 -22 0 -12 -4 -17 -11 -14 -6 4 -8 13 -5 20 6 17 -78 28 -155 19 l-59 -7 0
-158 c0 -152 -1 -159 -20 -159 -19 0 -20 7 -21 103 -2 89 -1 185 0 239 1 15
14 18 94 20 50 2 129 4 174 6 70 3 83 1 92 -15z m869 -186 c2 -162 0 -187 -13
-187 -14 0 -20 73 -17 235 0 17 1 56 1 88 1 42 5 57 14 55 9 -4 13 -53 15
-191z m52 87 c8 -154 1 -274 -16 -274 -9 0 -14 12 -14 38 0 20 -2 103 -3 185
-2 81 -1 149 2 152 17 18 27 -13 31 -101z m150 -100 c-1 -96 -6 -174 -10 -174
-8 0 -19 328 -12 350 2 6 8 7 13 4 6 -3 9 -79 9 -180z m-752 3 c2 -162 2 -167
-18 -167 -19 0 -20 6 -20 171 0 157 1 170 18 167 15 -3 17 -20 20 -171z m112
3 l0 -170 -25 0 -26 0 1 164 c1 90 4 167 8 170 3 3 14 6 24 6 17 0 18 -12 18
-170z m40 0 c0 -107 -4 -170 -10 -170 -6 0 -10 63 -10 170 0 107 4 170 10 170
6 0 10 -63 10 -170z m88 -2 l-3 -173 -32 -3 -33 -3 0 175 0 176 35 0 35 0 -2
-172z m438 35 c-3 -76 -5 -155 -5 -175 -1 -34 -4 -38 -26 -38 l-25 0 0 175 0
175 30 0 30 0 -4 -137z m34 -38 c0 -110 -4 -175 -10 -175 -6 0 -10 65 -10 175
0 110 4 175 10 175 6 0 10 -65 10 -175z m-914 130 c3 -20 4 -75 0 -123 -3 -48
-6 -106 -6 -130 0 -39 -2 -43 -22 -40 -23 3 -23 6 -26 153 -1 82 0 155 2 162
3 7 14 13 25 13 15 0 22 -9 27 -35z m74 -130 l0 -165 -30 0 -30 0 0 165 0 165
30 0 30 0 0 -165z m70 0 l0 -165 -24 0 c-31 0 -32 2 -28 181 l3 149 25 0 24 0
0 -165z m482 -108 c-2 -38 -5 -67 -7 -65 -4 4 -8 320 -4 333 5 18 14 -199 11
-268z m-962 109 c0 -104 -4 -156 -11 -158 -6 -2 -25 -2 -43 0 l-31 4 1 136 c1
179 -3 167 44 170 l40 2 0 -154z m97 -3 l-4 -158 -39 0 -39 0 2 120 c1 66 2
137 2 158 1 37 1 37 42 37 l41 0 -5 -157z m76 -4 c-1 -94 -5 -155 -12 -157 -6
-2 -10 53 -10 158 -1 125 2 161 12 157 9 -3 12 -42 10 -158z m45 -3 c2 -125 0
-157 -10 -154 -10 4 -14 45 -16 162 -2 125 0 157 10 154 10 -4 14 -45 16 -162z
m712 -1 c0 -91 -4 -165 -9 -165 -5 0 -9 74 -9 165 0 93 4 165 9 165 5 0 9 -72
9 -165z m422 80 c2 -41 2 -113 0 -160 -3 -80 -5 -85 -25 -85 -21 0 -22 4 -25
150 -2 83 0 155 3 160 3 6 15 10 25 10 16 0 19 -10 22 -75z m68 -85 l0 -160
-25 0 -25 0 0 160 0 160 25 0 25 0 0 -160z m-382 -7 l3 -153 -31 0 -30 0 0
154 0 153 28 -1 27 -1 3 -152z m-138 -5 l0 -148 -50 0 c-27 0 -50 3 -51 8 -1
4 -2 65 -3 136 -3 147 2 158 65 154 l39 -2 0 -148z m-766 57 c8 -84 -2 -198
-15 -189 -12 7 -12 264 0 264 4 0 11 -34 15 -75z"/>
<path d="M4734 3737 c-2 -7 -3 -107 -2 -222 l3 -209 60 -3 c88 -5 658 -41 815
-52 74 -6 189 -13 255 -16 66 -3 164 -10 219 -16 54 -5 131 -9 172 -9 l74 0 0
244 c0 173 -3 247 -11 252 -7 4 -53 8 -103 10 -166 5 -626 14 -1001 20 -203 3
-394 7 -423 9 -35 2 -55 -1 -58 -8z m56 -212 c0 -198 -1 -205 -20 -205 -19 0
-20 7 -20 205 0 198 1 205 20 205 19 0 20 -7 20 -205z m40 0 c0 -130 -4 -205
-10 -205 -6 0 -10 75 -10 205 0 130 4 205 10 205 6 0 10 -75 10 -205z m166
195 c30 0 54 -4 54 -10 0 -5 -22 -10 -50 -10 -43 0 -50 -3 -50 -20 0 -15 -7
-20 -25 -20 -18 0 -25 5 -25 20 0 13 -7 20 -19 20 -11 0 -22 4 -26 9 -5 10 49
20 73 14 8 -1 38 -3 68 -3z m164 -67 c0 -38 2 -132 3 -211 l2 -142 -47 0 -48
0 0 210 0 210 45 0 45 0 0 -67z m42 -55 c4 -169 -1 -298 -12 -298 -10 0 -17
192 -12 333 1 48 7 87 12 87 5 0 10 -55 12 -122z m83 70 c4 -29 4 -120 1 -203
-3 -82 -6 -156 -6 -162 0 -8 -13 -13 -29 -13 -26 0 -29 4 -32 38 -2 20 -3 117
-1 215 l3 177 29 0 c27 0 29 -3 35 -52z m190 42 c4 -6 -26 -9 -80 -9 -47 0
-85 5 -85 10 0 12 157 12 165 -1z m45 -214 c0 -133 -4 -217 -10 -221 -7 -4
-10 70 -10 214 0 141 4 221 10 221 6 0 10 -78 10 -214z m55 182 c3 -18 4 -103
1 -188 -2 -85 -5 -170 -5 -187 -1 -26 -5 -33 -22 -33 -20 0 -20 4 -18 173 4
225 8 267 25 267 7 0 16 -15 19 -32z m35 -188 c0 -140 -4 -220 -10 -220 -6 0
-10 80 -10 220 0 140 4 220 10 220 6 0 10 -80 10 -220z m90 -6 l-1 -225 -37 3
-37 3 2 215 c1 118 3 218 3 223 0 4 16 7 35 7 l36 0 -1 -226z m258 216 c6 0
12 -4 12 -9 0 -4 -10 -7 -22 -6 -13 1 -71 3 -130 4 -71 1 -108 5 -108 12 0 7
36 9 118 5 64 -3 123 -5 130 -6z m63 -17 c0 -10 1 -112 2 -228 2 -193 1 -210
-15 -213 -17 -3 -18 13 -18 227 0 199 2 231 15 231 8 0 15 -8 16 -17z m56
-133 c1 -80 3 -181 3 -224 0 -44 3 -76 7 -73 3 4 5 95 5 202 -1 167 1 197 14
202 8 3 17 3 20 0 4 -3 8 -101 11 -218 5 -198 5 -212 -11 -206 -10 4 -32 7
-50 7 l-33 0 -2 231 c-2 217 -1 230 16 227 16 -3 18 -18 20 -148z m113 134 c0
-12 -10 -14 -47 -12 -66 4 -70 28 -4 28 39 0 51 -4 51 -16z m120 -225 l0 -242
-42 7 c-23 4 -45 11 -48 16 -4 6 -7 111 -8 235 l-2 225 50 0 50 0 0 -241z
m-1430 41 c0 -164 -2 -189 -15 -184 -8 4 -15 7 -16 8 -4 8 -9 342 -5 352 3 8
12 14 21 14 13 0 15 -26 15 -190z m102 -8 c2 -100 0 -182 -4 -182 -5 0 -8 87
-7 193 0 105 2 188 4 182 3 -5 6 -92 7 -193z m60 193 c11 -4 13 -42 10 -192
-2 -103 -4 -189 -6 -190 -1 -1 -12 0 -24 4 -22 5 -22 8 -22 194 0 197 1 200
42 184z m291 -72 c8 -99 9 -312 2 -323 -3 -5 -12 -7 -20 -4 -21 8 -22 404 -1
404 10 0 15 -23 19 -77z m59 65 c6 -16 -1 -391 -7 -396 -2 -3 -11 -2 -20 2
-13 5 -15 33 -14 206 1 187 2 200 19 200 10 0 20 -6 22 -12z m90 -81 c2 -51 2
-144 0 -207 l-3 -116 -35 4 -34 4 0 203 0 203 34 0 35 0 3 -91z m309 67 c10
-6 9 -403 0 -409 -4 -2 -24 -2 -44 2 l-36 5 4 199 c2 109 6 202 9 208 6 9 50
6 67 -5z m109 -204 l0 -210 -45 0 -45 0 1 210 0 210 45 0 44 0 0 -210z m72 -4
c-1 -115 -3 -211 -5 -212 -1 -1 -14 0 -30 3 -23 5 -27 9 -23 32 2 14 5 108 5
209 l1 183 28 -3 27 -3 -3 -209z m226 -13 l2 -213 -24 0 -24 0 -1 216 -2 215
23 -3 23 -3 3 -212z m-1246 140 c1 -32 1 -83 1 -113 -1 -30 -2 -79 -2 -108 -1
-49 -3 -53 -23 -50 -23 3 -23 6 -26 166 l-2 162 25 0 c24 0 25 -3 27 -57z"/>
<path d="M6370 3703 c-3 -65 2 -498 6 -502 5 -5 18 -7 164 -16 101 -7 194 -14
543 -40 120 -10 220 -15 223 -13 6 7 10 545 4 551 -3 3 -183 8 -400 12 -217 3
-428 8 -467 10 -40 3 -73 2 -73 -2z m70 -253 l0 -240 -25 0 c-28 0 -27 -5 -27
285 0 203 -1 195 27 195 l25 0 0 -240z m60 213 c1 -16 2 -125 3 -243 2 -210 2
-215 -18 -212 -11 2 -21 5 -22 5 -1 2 -5 456 -4 470 1 4 10 7 21 7 15 0 20 -7
20 -27z m48 -221 c2 -211 0 -242 -13 -242 -13 0 -15 24 -17 158 -3 293 -1 335
15 330 9 -4 13 -64 15 -246z m64 156 c2 -51 2 -164 0 -250 -4 -147 -6 -156
-23 -149 -17 6 -19 24 -25 249 l-6 242 25 0 c24 0 25 -2 29 -92z m108 82 c13
-9 13 -11 0 -20 -8 -6 -24 -8 -35 -5 -11 2 -28 5 -37 5 -10 0 -18 7 -18 15 0
17 65 21 90 5z m110 -252 l0 -251 -36 6 c-20 3 -38 8 -40 10 -5 5 -14 478 -9
486 2 4 22 5 44 3 l41 -4 0 -250z m108 215 c-3 -38 -3 -38 -48 -38 -45 0 -45
0 -48 38 l-3 37 51 0 51 0 -3 -37z m52 -218 c0 -220 -2 -255 -15 -255 -14 0
-18 42 -18 230 0 229 4 280 18 280 13 0 15 -35 15 -255z m87 -2 c-2 -250 -3
-258 -22 -261 -47 -6 -48 1 -53 267 l-4 251 41 0 40 0 -2 -257z m66 130 c4
-103 3 -352 -2 -385 -1 -5 -12 -8 -25 -8 l-25 0 -1 260 0 260 23 0 c24 0 24
-1 30 -127z m97 -138 l0 -265 -24 0 c-58 0 -56 -10 -56 271 l0 259 40 0 40 0
0 -265z m60 -1 l0 -265 -22 3 c-23 3 -23 5 -24 163 -1 88 1 206 4 263 4 91 7
102 23 102 18 0 19 -14 19 -266z m-634 191 c1 -16 0 -117 -4 -222 -4 -152 -8
-193 -19 -193 -10 0 -13 43 -13 226 0 205 2 225 17 222 10 -2 17 -14 19 -33z
m66 -167 c4 -248 4 -248 -28 -248 l-24 0 0 225 0 225 25 0 24 0 3 -202z m206
-60 l2 -206 -42 5 c-24 3 -44 7 -46 8 -1 1 -3 93 -5 204 l-2 202 45 -3 45 -3
3 -207z"/>
<path d="M400 3512 c-135 -3 -130 0 -130 -84 0 -76 6 -89 11 -23 3 40 13 55
37 55 10 0 12 -74 10 -352 l-3 -353 -22 -3 -23 -3 0 302 c0 166 -2 300 -5 297
-3 -2 -7 -140 -10 -306 -5 -252 -3 -303 8 -308 12 -4 226 21 352 41 l30 5 2
209 c2 132 -1 212 -7 216 -11 7 -11 -13 -10 -262 l1 -153 -26 0 -25 0 0 339
c0 187 3 346 6 355 8 22 44 21 45 -1 0 -10 0 -66 -1 -125 -1 -64 3 -108 9
-108 5 0 9 53 8 133 l-2 132 -85 0 c-47 0 -123 -1 -170 -3z m90 -31 c0 -13 -9
-20 -30 -23 -21 -3 -30 0 -30 10 0 12 -13 13 -70 9 -38 -3 -70 -1 -70 4 0 4
30 10 68 12 37 2 82 4 100 5 25 2 32 -2 32 -17z m87 -338 l-4 -358 -37 -3 -36
-3 -1 188 c0 103 -3 183 -5 178 -2 -6 -5 -91 -7 -190 l-2 -180 -32 -3 -33 -3
0 329 0 330 26 6 c15 4 31 3 35 -1 5 -5 10 -67 12 -138 l3 -130 2 161 c1 88 5
164 9 167 3 4 22 7 40 7 l34 0 -4 -357z m-175 50 c0 -147 0 -305 -1 -350 l-1
-83 -29 0 -29 0 -1 218 c-1 119 1 276 5 349 6 124 8 132 28 135 11 2 22 3 24
2 2 -1 4 -123 4 -271z"/>
<path d="M6845 3060 c-3 -5 -1 -10 4 -10 6 0 11 5 11 10 0 6 -2 10 -4 10 -3 0
-8 -4 -11 -10z"/>
<path d="M5801 2569 c13 -26 -2 -48 -23 -32 -7 5 -21 13 -32 17 -16 5 -17 3
-12 -19 6 -22 -1 -33 -38 -70 -36 -35 -60 -48 -117 -64 -40 -11 -89 -32 -110
-46 -31 -20 -37 -21 -32 -7 4 9 -13 0 -39 -23 -25 -22 -47 -43 -47 -47 -2 -15
14 -8 41 17 29 27 44 33 32 13 -5 -7 9 1 29 19 42 37 120 63 188 63 56 0 95
-13 127 -42 28 -27 29 -12 0 19 -20 22 -21 23 -2 23 18 1 18 1 1 11 -10 6 -31
8 -46 4 -17 -3 -32 -2 -36 4 -4 7 4 11 19 11 14 0 26 5 26 10 0 6 -8 10 -17
10 -25 0 21 45 72 70 40 20 59 19 117 -5 12 -5 18 0 21 17 4 23 7 -11 10 -97
2 -78 -87 -171 -205 -217 -55 -22 -83 -47 -35 -32 80 25 297 154 259 154 -6 0
-14 -4 -17 -10 -3 -5 -16 -15 -28 -20 -18 -9 -17 -7 5 12 35 30 88 98 88 112
-1 6 -14 -5 -31 -24 l-30 -35 20 48 c23 54 28 101 6 52 -15 -32 -19 -22 -16
35 3 36 -16 80 -33 80 -9 0 -13 -6 -10 -14 3 -8 2 -22 -3 -31 -8 -13 -15 -10
-46 20 -41 40 -75 49 -56 14z m44 -19 c3 -5 2 -10 -4 -10 -5 0 -13 5 -16 10
-3 6 -2 10 4 10 5 0 13 -4 16 -10z"/>
<path d="M1980 2540 l-25 -8 25 0 c14 0 39 4 55 8 l30 8 -30 0 c-16 0 -41 -4
-55 -8z"/>
<path d="M1885 2524 c-5 -2 -91 -17 -190 -34 -99 -17 -252 -44 -340 -60 -88
-17 -185 -35 -215 -40 -179 -31 -242 -42 -300 -55 -57 -13 -390 -72 -445 -79
-84 -11 -125 -20 -125 -27 0 -5 1 -9 3 -9 11 0 438 73 492 84 121 25 224 44
410 76 99 17 209 37 245 45 36 8 146 28 245 45 207 35 306 58 260 58 -16 0
-34 -1 -40 -4z"/>
<path d="M6690 2423 c-14 -38 -34 -42 -67 -11 l-23 21 0 -21 c0 -16 4 -20 17
-15 11 4 14 3 9 -5 -4 -7 -13 -12 -20 -12 -7 0 -29 -16 -49 -35 -41 -40 -197
-102 -208 -83 -4 6 -12 7 -19 3 -6 -4 -29 -9 -51 -11 -21 -2 -57 -13 -79 -24
-45 -23 -110 -77 -110 -92 0 -6 18 6 39 25 38 34 91 67 108 67 4 0 -6 -9 -24
-20 -31 -19 -62 -60 -45 -60 5 0 19 12 33 26 25 27 76 56 119 68 23 7 22 5 -7
-19 -51 -41 -39 -48 17 -10 56 37 143 60 193 50 17 -4 49 -20 70 -36 34 -28
37 -28 37 -10 0 18 3 19 26 11 20 -8 25 -7 22 2 -3 7 -18 14 -34 16 -77 7
-101 27 -41 35 24 3 21 4 -15 5 -27 1 -48 6 -48 10 0 17 58 63 90 72 46 13
106 -4 143 -41 26 -27 29 -34 23 -72 -4 -23 -13 -49 -21 -58 -8 -8 -15 -20
-15 -25 0 -24 -115 -114 -145 -114 -21 0 -19 -13 5 -28 17 -10 20 -10 20 3 0
9 9 15 26 15 30 0 124 39 124 51 0 12 -2 12 -39 -7 -17 -8 -37 -14 -44 -11 -6
2 7 14 31 26 53 27 124 90 116 103 -3 5 -12 0 -20 -11 -8 -11 -28 -30 -45 -42
-29 -21 -31 -21 -21 -2 6 11 18 26 27 33 19 16 55 83 55 102 -1 7 -8 1 -16
-14 -8 -16 -16 -28 -18 -28 -7 0 -5 72 3 93 6 14 4 33 -3 52 l-13 30 -16 -32
c-18 -34 -47 -36 -47 -3 0 10 -9 28 -19 41 l-20 24 -11 -32z m30 -17 c0 -8 -4
-18 -10 -21 -5 -3 -10 3 -10 14 0 12 5 21 10 21 6 0 10 -6 10 -14z m86 -63
c-5 -12 -10 -13 -17 -6 -8 8 -7 18 2 34 12 21 14 22 17 6 2 -10 1 -25 -2 -34z"/>
<path d="M5575 2363 c-11 -3 -24 -10 -30 -15 -7 -7 -2 -9 15 -4 14 3 31 6 38
6 6 0 12 5 12 10 0 10 -3 11 -35 3z"/>
<path d="M5292 2250 c-12 -10 -28 -20 -35 -23 -6 -2 -9 -8 -5 -12 9 -10 80 34
72 46 -7 11 -5 12 -32 -11z"/>
<path d="M6074 2172 c-30 -25 -61 -72 -49 -72 5 0 95 91 95 97 0 9 -19 -1 -46
-25z"/>
<path d="M6011 2155 c-13 -20 -37 -43 -53 -52 -37 -22 -37 -38 1 -19 30 16 91
80 91 96 0 19 -15 9 -39 -25z"/>
<path d="M5585 2155 c-51 -24 -107 -64 -91 -65 5 0 31 14 58 30 26 17 54 30
61 30 6 -1 -1 -8 -16 -16 -40 -22 -27 -28 18 -10 45 19 144 36 150 26 3 -4
-13 -10 -35 -14 -21 -3 -42 -11 -46 -17 -4 -8 4 -9 27 -5 l34 7 -34 -16 c-49
-22 -31 -30 25 -11 26 9 60 16 76 16 15 0 28 4 28 10 0 5 -7 7 -15 4 -8 -4
-15 -1 -15 5 0 6 14 11 30 11 17 0 30 4 30 8 0 4 -16 6 -36 4 -20 -3 -46 1
-59 8 -19 10 -36 10 -81 1 -32 -6 -60 -9 -62 -6 -3 3 2 5 12 5 9 0 14 5 11 10
-8 13 -12 13 -70 -15z m198 -32 c-7 -2 -19 -2 -25 0 -7 3 -2 5 12 5 14 0 19
-2 13 -5z"/>
<path d="M5442 2105 c-56 -41 -81 -65 -67 -65 3 0 30 18 59 40 29 22 58 40 64
40 15 0 25 17 14 24 -5 3 -36 -15 -70 -39z"/>
<path d="M5916 2110 c-17 -17 -34 -29 -40 -27 -6 2 -30 -11 -53 -29 -24 -18
-59 -38 -78 -45 -19 -7 -35 -17 -35 -22 0 -11 37 0 69 20 13 8 34 16 46 18 36
4 161 116 127 115 -4 0 -20 -14 -36 -30z"/>
<path d="M5711 2075 c-23 -10 -31 -20 -27 -30 6 -18 -41 -50 -86 -60 -16 -4
-26 -11 -23 -16 12 -19 137 51 132 74 -1 7 17 16 41 21 23 6 42 13 42 18 0 13
-42 9 -79 -7z"/>
<path d="M5262 2031 c-29 -10 -58 -23 -65 -30 -17 -17 5 -14 54 9 24 11 59 20
77 20 17 0 32 5 32 10 0 15 -39 12 -98 -9z"/>
<path d="M6531 2026 c2 -2 22 -9 44 -15 36 -9 38 -9 21 4 -17 13 -77 23 -65
11z"/>
<path d="M6511 1996 c2 -2 21 -6 42 -10 27 -5 37 -4 32 3 -3 6 -22 11 -42 11
-20 0 -34 -2 -32 -4z"/>
<path d="M6416 1965 c-34 -6 -61 -16 -64 -24 -4 -11 0 -12 14 -6 47 20 116 28
150 17 19 -5 34 -6 34 -1 0 5 -12 11 -27 15 -16 3 -32 7 -38 8 -5 1 -37 -3
-69 -9z"/>
<path d="M4171 1895 c-53 -39 -75 -65 -55 -65 5 0 45 31 112 87 49 41 5 24
-57 -22z"/>
<path d="M6412 1935 c3 -3 15 -8 27 -10 13 -2 31 -7 42 -10 23 -8 26 10 3 19
-19 7 -79 8 -72 1z"/>
<path d="M3957 1886 c-4 -25 -18 -68 -32 -96 -25 -49 -27 -50 -69 -50 -25 0
-72 7 -105 16 -34 8 -67 12 -73 8 -8 -5 7 -13 37 -21 l50 -12 -58 5 c-32 2
-72 11 -87 19 -37 19 -46 19 -30 0 7 -8 27 -19 44 -24 31 -9 31 -9 -11 -10
-22 -1 -69 -10 -102 -20 -34 -10 -64 -15 -67 -10 -3 5 -9 9 -14 9 -5 0 0 -19
10 -42 26 -57 25 -82 -1 -38 -25 42 -79 100 -93 100 -5 0 4 -15 22 -33 40 -41
41 -52 2 -32 -16 8 -51 16 -77 18 l-48 2 -5 -45 -5 -45 -54 -3 c-29 -2 -66 1
-82 7 -17 6 -31 6 -34 1 -9 -14 42 -25 113 -25 51 0 63 -3 68 -18 8 -26 -14
-73 -42 -92 -13 -8 -21 -21 -18 -29 3 -9 -13 -24 -48 -44 -64 -37 -138 -113
-138 -141 0 -12 5 -21 10 -21 6 0 10 -6 10 -12 0 -11 -81 -14 -190 -8 -3 0
-11 23 -17 51 -7 27 -26 71 -43 96 -17 25 -29 52 -26 60 6 16 82 52 109 53 9
0 17 5 17 10 0 6 -15 10 -32 10 -18 0 -43 3 -55 6 -14 4 -23 2 -23 -5 0 -6 8
-11 18 -11 12 0 8 -8 -18 -29 l-35 -29 -27 31 -27 32 -32 -18 c-22 -12 -35
-15 -43 -7 -5 5 -16 10 -23 10 -8 0 -4 -19 14 -62 l27 -61 -24 -16 c-43 -28
-85 -69 -78 -76 4 -4 17 4 30 17 13 14 37 33 53 42 l30 18 -31 -28 c-43 -40
-95 -114 -88 -126 4 -6 10 -5 16 3 7 10 8 7 4 -11 -15 -65 -18 -100 -8 -100 6
0 13 17 15 38 2 20 4 2 5 -40 1 -43 6 -78 10 -78 5 0 7 15 5 33 l-3 32 15 -30
c8 -16 14 -35 15 -40 0 -15 91 -117 98 -111 3 3 -3 16 -14 28 -19 21 -19 21 1
13 11 -4 40 -16 65 -25 101 -38 139 -61 182 -112 24 -29 47 -60 50 -68 3 -9
42 -26 88 -40 63 -19 84 -30 91 -47 10 -27 48 -53 94 -63 42 -9 44 -5 10 22
-31 24 -61 81 -69 128 -8 56 5 151 25 171 9 9 15 19 13 22 -2 2 42 3 98 2 100
-2 149 -12 163 -34 3 -6 12 -11 18 -11 7 0 -8 18 -33 39 -25 22 -42 43 -37 47
12 13 77 -24 89 -51 6 -13 15 -22 19 -19 4 2 25 -5 46 -16 21 -11 48 -20 61
-20 13 0 32 -5 43 -10 40 -22 18 9 -25 34 -24 14 -56 40 -70 57 -14 17 -26 25
-26 18 0 -7 14 -28 32 -46 45 -46 21 -41 -49 11 -80 58 -96 66 -137 66 -42 0
-44 -5 -13 -31 l22 -19 -30 6 c-16 3 -35 7 -41 9 -13 4 -48 94 -40 102 4 4 12
1 18 -5 14 -14 28 -16 28 -3 0 5 -13 14 -30 21 -21 9 -33 23 -41 49 -12 41
-21 45 -161 83 -43 11 -78 25 -78 29 0 5 10 7 23 4 16 -4 29 0 41 14 11 12 14
21 8 21 -6 0 -14 -4 -17 -10 -9 -14 -38 -12 -59 3 -18 13 -18 15 -1 41 20 30
106 94 203 151 71 41 78 59 10 25 l-43 -22 26 28 c48 55 50 60 39 89 -6 14
-13 47 -16 72 l-5 46 51 -6 c48 -6 129 -50 130 -71 0 -5 -6 -3 -13 3 -23 19
-87 42 -87 31 0 -5 7 -10 15 -10 8 0 30 -13 48 -30 40 -35 41 -35 65 -14 16
13 18 23 11 57 -4 23 -7 43 -6 43 14 12 110 34 147 34 28 0 50 4 50 9 0 5 27
7 60 4 34 -3 60 -2 60 3 0 5 24 9 53 8 28 -1 61 2 72 6 11 5 17 9 12 9 -4 1 2
19 13 40 25 50 41 121 31 139 -5 9 -10 -2 -14 -32z m-1193 -540 c14 -21 26
-44 26 -50 0 -6 -12 7 -27 29 -14 22 -41 58 -60 81 -18 23 -33 44 -33 48 0 9
64 -64 94 -108z m1 -59 l28 -52 -55 60 c-108 118 -119 133 -106 138 18 7 99
-82 133 -146z m15 -82 c0 -11 9 -40 20 -64 24 -52 24 -51 5 -51 -24 0 -174
241 -175 280 0 23 149 -142 150 -165z m-110 43 c0 -5 -8 -8 -17 -8 -12 0 -5
-9 20 -27 69 -49 137 -195 137 -293 0 -32 -1 -33 -38 -28 -60 9 -137 46 -154
76 -38 63 -63 182 -39 182 4 0 12 -14 17 -32 5 -17 15 -33 21 -35 9 -3 9 5 -2
31 -20 48 -19 135 1 165 l17 24 18 -24 c10 -13 19 -27 19 -31z m-104 -79 c-9
-19 -15 -29 -16 -22 0 15 22 64 27 60 2 -2 -3 -19 -11 -38z m519 -3 c33 -7 86
-21 117 -31 63 -20 67 -27 108 -157 14 -44 15 -58 5 -58 -7 0 -18 15 -25 33
-7 17 -21 51 -32 74 -10 23 -15 48 -12 56 3 9 -9 19 -38 30 -39 14 -68 23
-188 55 -53 15 -3 13 65 -2z m-234 -16 c5 -8 29 -69 55 -135 77 -203 86 -226
91 -222 3 4 -28 93 -96 275 -23 61 -27 82 -17 82 17 0 281 -68 318 -82 20 -7
33 -27 56 -82 l30 -73 -68 1 c-45 1 -76 8 -94 19 l-26 17 0 -33 c0 -33 39 -87
61 -87 5 0 9 -19 9 -41 0 -38 -2 -41 -22 -36 -13 2 -31 8 -40 12 -14 5 -18 2
-18 -12 0 -28 25 -59 60 -73 28 -12 44 -44 18 -35 -7 2 -39 11 -70 19 -45 13
-59 22 -67 44 l-11 27 4 -28 c3 -26 2 -27 -18 -14 -14 10 -48 83 -104 228
-103 268 -98 252 -77 247 10 -1 22 -10 26 -18z m151 5 c80 -17 240 -66 234
-72 -4 -5 -318 76 -325 83 -8 7 16 4 91 -11z m-187 -84 c3 -5 1 -12 -5 -16 -5
-3 -10 1 -10 9 0 18 6 21 15 7z m35 -57 c7 -19 10 -38 7 -40 -8 -8 -49 55 -42
66 12 19 23 10 35 -26z m5 -72 c-6 -7 -35 18 -35 31 0 5 9 2 20 -8 11 -10 18
-20 15 -23z m57 -86 c33 -82 34 -86 8 -53 -11 14 -20 29 -20 33 0 4 -16 22
-35 40 -42 38 -45 57 -8 52 23 -3 31 -13 55 -72z m276 29 c1 -1 -1 -12 -6 -24
l-8 -22 -27 21 c-15 12 -27 30 -27 41 0 19 1 19 33 3 17 -9 33 -18 35 -19z
m-328 -25 c13 -8 13 -10 -2 -10 -9 0 -20 5 -23 10 -8 13 5 13 25 0z m310 -152
c0 -10 -3 -18 -6 -18 -14 0 -44 22 -53 39 -9 16 -7 17 25 7 22 -7 34 -17 34
-28z m39 -110 c7 -11 11 -22 8 -24 -6 -6 -57 35 -57 46 0 15 36 -1 49 -22z"/>
<path d="M4115 1904 c-52 -34 -145 -125 -145 -141 0 -7 21 10 47 38 25 27 74
67 107 89 33 22 54 40 46 40 -9 0 -33 -12 -55 -26z"/>
<path d="M6306 1904 c-60 -19 -53 -31 8 -14 25 7 63 10 85 8 41 -4 54 5 25 16
-25 9 -65 6 -118 -10z"/>
<path d="M3907 1865 c-4 -25 -13 -59 -22 -75 -10 -19 -11 -31 -5 -35 6 -4 17
9 24 27 19 45 31 128 18 128 -5 0 -12 -20 -15 -45z"/>
<path d="M3996 1857 c-11 -23 -22 -45 -24 -49 -2 -5 1 -8 7 -8 11 0 33 38 45
78 12 38 -8 24 -28 -21z"/>
<path d="M5674 1854 c-17 -14 -17 -15 -1 -10 10 3 25 6 33 6 8 0 14 5 14 10 0
15 -24 12 -46 -6z"/>
<path d="M6250 1861 c-15 -5 11 -7 63 -7 48 1 78 4 65 8 -31 8 -97 8 -128 -1z"/>
<path d="M3857 1809 c-6 -67 -2 -73 14 -21 8 26 8 45 2 57 -8 14 -11 6 -16
-36z"/>
<path d="M6240 1833 c-52 -19 -102 -44 -97 -49 3 -4 27 4 54 17 32 15 66 23
105 23 32 1 58 4 58 9 0 8 -97 8 -120 0z"/>
<path d="M5800 1821 c0 -9 71 -22 79 -15 8 7 -4 12 -41 18 -21 3 -38 2 -38 -3z"/>
<path d="M6176 1781 c-6 -9 -81 -40 -146 -60 l-35 -11 45 4 c46 3 160 51 160
67 0 12 -17 12 -24 0z"/>
<path d="M5765 1749 c-5 -7 7 -8 37 -4 25 4 61 2 81 -3 21 -6 37 -7 37 -2 0
20 -143 29 -155 9z"/>
<path d="M6121 1717 c-31 -13 -76 -21 -148 -25 -57 -3 -103 -9 -103 -14 0 -5
4 -7 9 -4 11 7 117 -8 145 -19 15 -7 18 -5 13 7 -4 12 3 17 31 22 47 8 119 40
107 48 -6 3 -30 -4 -54 -15z"/>
<path d="M3620 1683 c-65 -25 -121 -54 -116 -61 3 -5 31 4 62 19 31 16 66 29
78 30 12 0 30 4 41 9 16 7 13 9 -15 9 -19 -1 -42 -3 -50 -6z"/>
<path d="M3705 1665 c-5 -1 -38 -11 -72 -20 -35 -10 -63 -22 -63 -27 0 -10 -6
-11 68 12 35 11 83 20 105 20 31 0 38 3 27 10 -14 9 -44 12 -65 5z"/>
<path d="M5833 1649 c-18 -5 -33 -11 -33 -12 0 -1 52 -2 114 -2 68 0 111 4
106 9 -13 13 -150 17 -187 5z"/>
<path d="M3690 1631 c0 -6 17 -11 41 -11 35 0 39 -2 30 -14 -10 -12 -6 -15 20
-21 23 -5 28 -10 18 -16 -9 -5 -9 -9 -3 -9 7 0 36 -16 64 -35 29 -20 55 -33
58 -30 3 3 -4 12 -15 20 -13 9 -19 22 -16 33 3 14 -5 21 -35 32 -25 7 -38 18
-36 25 6 15 -11 22 -76 31 -34 5 -50 3 -50 -5z m180 -87 c0 -2 -9 0 -20 6 -11
6 -20 13 -20 16 0 2 9 0 20 -6 11 -6 20 -13 20 -16z"/>
<path d="M5833 1613 c-13 -2 -23 -9 -23 -14 0 -6 15 -7 38 -2 20 4 49 7 65 7
15 -1 27 3 27 7 0 9 -66 10 -107 2z"/>
<path d="M3666 1584 c-43 -16 -108 -53 -118 -68 -13 -20 1 -18 30 3 31 21 117
61 133 61 20 0 29 -51 20 -108 -5 -31 -7 -59 -5 -61 18 -19 35 95 21 147 -12
46 -20 49 -81 26z"/>
<path d="M2965 1580 c11 -18 109 -40 174 -39 l66 2 -85 12 c-47 7 -98 18 -113
24 -35 14 -50 14 -42 1z"/>
<path d="M5913 1565 c-33 -23 -155 -51 -173 -40 -6 4 -10 1 -10 -6 0 -18 107
-5 168 21 29 12 52 29 52 36 0 17 2 18 -37 -11z"/>
<path d="M2892 1567 c3 -6 23 -19 46 -27 23 -8 42 -18 42 -23 0 -10 -116 -4
-142 8 -11 4 -18 3 -18 -3 0 -16 103 -36 144 -28 20 4 34 11 31 16 -4 6 18 7
54 3 38 -3 61 -2 61 4 0 6 -29 13 -65 16 -36 4 -86 15 -111 26 -29 13 -44 16
-42 8z"/>
<path d="M4550 1570 c0 -13 11 -13 30 0 12 8 11 10 -7 10 -13 0 -23 -4 -23
-10z"/>
<path d="M3820 1511 c0 -6 13 -17 28 -25 16 -8 43 -29 60 -47 17 -18 34 -30
37 -27 9 9 -56 73 -92 92 -18 9 -33 12 -33 7z"/>
<path d="M4608 1513 c12 -2 32 -2 45 0 12 2 2 4 -23 4 -25 0 -35 -2 -22 -4z"/>
<path d="M5695 1496 c47 -14 66 -13 52 0 -3 4 -28 8 -54 10 l-48 4 50 -14z"/>
<path d="M5550 1484 c0 -5 28 -10 62 -11 33 -2 70 -5 82 -9 17 -5 19 -4 8 7
-14 15 -152 26 -152 13z"/>
<path d="M4670 1463 c0 -6 35 -13 78 -16 42 -3 85 -8 95 -12 9 -4 17 -3 17 3
0 11 -34 19 -125 28 -41 4 -65 3 -65 -3z"/>
<path d="M5503 1453 c4 -3 41 -7 82 -8 41 -1 69 2 62 7 -15 9 -153 11 -144 1z"/>
<path d="M5450 1415 c-18 -13 -49 -30 -69 -36 -45 -14 -62 -29 -35 -29 25 0
118 46 135 66 21 25 4 25 -31 -1z"/>
<path d="M5505 1419 c-12 -18 2 -20 36 -5 l34 14 -32 1 c-17 1 -35 -4 -38 -10z"/>
<path d="M3882 1399 c7 -12 19 -31 25 -43 11 -18 13 -18 13 -3 0 21 -28 67
-42 67 -5 0 -3 -10 4 -21z"/>
<path d="M4640 1413 c0 -5 43 -8 95 -9 52 -1 92 3 89 7 -6 11 -184 12 -184 2z"/>
<path d="M5419 1358 c-31 -16 -74 -32 -97 -35 -39 -5 -59 -22 -29 -24 6 -1 -4
-5 -23 -9 -19 -5 -45 -6 -57 -3 -13 3 -23 1 -23 -5 0 -6 12 -13 28 -15 25 -4
24 -4 -6 -6 -49 -2 -122 -22 -122 -33 0 -6 6 -8 13 -5 39 15 134 28 163 22 21
-3 34 -2 34 5 0 5 -12 10 -27 11 l-28 1 30 8 c17 4 43 11 58 14 15 4 25 10 23
15 -3 5 16 18 42 29 26 11 56 27 67 36 36 26 11 23 -46 -6z"/>
<path d="M3290 1370 c0 -5 6 -10 14 -10 7 0 19 -7 26 -15 7 -8 16 -15 21 -15
5 0 6 7 3 15 -9 23 12 18 29 -7 8 -13 18 -20 22 -16 4 4 -1 18 -12 32 -14 20
-27 25 -60 26 -24 0 -43 -4 -43 -10z"/>
<path d="M4830 1290 c14 -4 48 -8 75 -8 l50 0 -40 9 c-22 4 -56 8 -75 7 -32 0
-33 -1 -10 -8z"/>
<path d="M4672 1259 c10 -37 278 -131 313 -111 5 3 -24 13 -66 22 -86 19 -163
46 -199 70 -47 31 -53 34 -48 19z"/>
<path d="M3990 1253 c0 -6 5 -15 11 -19 6 -3 19 -20 30 -38 10 -17 19 -24 19
-16 0 19 -59 91 -60 73z"/>
<path d="M4622 1250 c13 -40 306 -166 331 -141 5 5 -11 13 -43 20 -70 15 -176
58 -225 90 -65 44 -68 45 -63 31z"/>
<path d="M4760 1252 c0 -8 36 -19 122 -37 10 -2 20 0 22 4 3 4 -22 13 -55 20
-33 6 -66 14 -74 18 -8 3 -15 1 -15 -5z"/>
<path d="M4239 1154 c2 -59 -2 -100 -13 -134 -18 -56 -19 -60 -8 -60 17 0 44
139 40 200 -7 96 -24 91 -19 -6z"/>
<path d="M4194 1210 c3 -14 6 -33 6 -42 0 -10 5 -18 11 -18 13 0 2 60 -13 75
-7 7 -9 2 -4 -15z"/>
<path d="M5030 1210 l-85 -6 103 -2 c62 -1 102 2 102 8 0 6 -8 9 -17 8 -10 -1
-56 -5 -103 -8z"/>
<path d="M3870 1205 c0 -8 74 -74 84 -75 12 0 -43 58 -66 71 -10 5 -18 7 -18
4z"/>
<path d="M3960 1198 c0 -3 11 -26 25 -51 14 -25 28 -68 32 -96 3 -28 10 -51
14 -51 26 0 -15 148 -51 184 -11 11 -20 18 -20 14z"/>
<path d="M4646 1187 c5 -13 92 -70 127 -83 10 -3 17 -1 17 5 0 6 -6 11 -13 11
-8 0 -39 18 -71 40 -62 44 -68 46 -60 27z"/>
<path d="M4097 1148 c8 -25 13 -61 10 -85 -5 -49 8 -58 18 -12 11 48 -12 139
-34 139 -5 0 -2 -19 6 -42z"/>
<path d="M4154 1100 c1 -39 4 -70 7 -70 11 0 20 65 13 98 -11 57 -21 43 -20
-28z"/>
<path d="M3868 1108 c24 -23 45 -52 48 -65 4 -13 10 -23 16 -23 24 0 -25 87
-65 115 -41 29 -41 15 1 -27z"/>
<path d="M4659 1130 c21 -18 51 -27 51 -15 0 6 -56 35 -67 35 -4 -1 3 -10 16
-20z"/>
<path d="M3460 1123 c0 -4 12 -20 27 -36 23 -23 24 -27 8 -21 -16 6 -14 0 10
-25 29 -31 50 -26 23 6 -11 14 -11 16 2 8 8 -5 26 -17 40 -27 32 -23 130 -37
130 -18 0 7 -6 10 -14 7 -29 -11 -97 17 -155 64 -61 49 -71 55 -71 42z"/>
<path d="M3540 1121 c0 -16 68 -59 131 -81 80 -30 131 -27 171 10 l33 30 -35
-6 c-43 -8 -48 -13 -31 -23 19 -12 -30 -22 -71 -15 -37 8 -141 55 -175 80 -14
10 -23 12 -23 5z"/>
<path d="M3730 1121 c0 -22 92 -41 105 -21 4 6 -6 10 -24 10 -16 0 -41 4 -55
10 -14 5 -26 6 -26 1z"/>
<path d="M3414 1105 c11 -8 27 -15 35 -15 13 1 12 4 -3 15 -11 8 -27 15 -35
15 -13 -1 -12 -4 3 -15z"/>
<path d="M3950 1116 c0 -2 7 -17 15 -32 8 -16 15 -39 15 -51 0 -13 5 -23 11
-23 7 0 9 11 6 28 -9 44 -26 82 -37 82 -5 0 -10 -2 -10 -4z"/>
<path d="M3356 1103 c-3 -3 16 -16 42 -28 26 -13 57 -33 70 -45 23 -22 41 -22
27 0 -16 26 -127 85 -139 73z"/>
<path d="M3650 1100 c0 -11 89 -52 107 -48 8 2 -13 15 -46 30 -34 14 -61 23
-61 18z"/>
<path d="M4063 1060 c1 -27 7 -50 12 -50 6 0 9 21 7 50 -5 65 -23 65 -19 0z"/>
<path d="M4206 1084 c-8 -22 -7 -34 3 -34 5 0 11 11 13 25 6 28 -6 34 -16 9z"/>
<path d="M4286 1088 c-2 -7 -9 -32 -15 -56 -12 -43 -82 -126 -126 -150 -11 -6
-17 -13 -13 -17 14 -15 118 65 118 91 0 6 8 22 19 35 18 23 39 109 27 109 -4
0 -8 -6 -10 -12z"/>
<path d="M3315 1070 c3 -5 12 -10 19 -10 6 0 30 -13 53 -30 22 -16 43 -27 47
-23 9 9 -84 73 -106 73 -11 0 -16 -4 -13 -10z"/>
<path d="M4690 1059 c-13 -23 -10 -213 3 -226 15 -14 17 7 9 63 -6 34 -6 85
-1 119 9 67 6 77 -11 44z"/>
<path d="M4722 1035 c3 -25 13 -56 23 -71 22 -34 30 -25 10 12 -8 16 -15 46
-15 67 0 21 -5 37 -11 37 -8 0 -10 -15 -7 -45z"/>
<path d="M4766 1071 c-3 -4 6 -13 19 -19 15 -7 25 -8 25 -2 0 13 -38 32 -44
21z"/>
<path d="M4300 982 c0 -6 -25 -37 -56 -68 -31 -30 -53 -58 -50 -62 4 -3 25 12
47 34 42 41 75 92 65 102 -3 3 -6 0 -6 -6z"/>
<path d="M4713 938 c3 -53 11 -78 21 -67 2 2 -2 31 -10 64 l-14 60 3 -57z"/>
<path d="M4645 959 c-10 -16 -7 -133 5 -163 16 -44 28 -29 15 22 -7 26 -10 71
-7 100 5 50 0 64 -13 41z"/>
<path d="M3630 911 c0 -13 67 -64 118 -90 23 -12 42 -17 42 -12 0 5 -20 20
-45 32 -24 12 -57 35 -72 51 -27 28 -43 35 -43 19z"/>
<path d="M3730 876 c16 -20 99 -72 128 -81 39 -12 23 9 -26 32 -26 12 -57 31
-69 43 -26 24 -52 28 -33 6z"/>
<path d="M4231 846 c-13 -13 -45 -34 -72 -45 -27 -12 -49 -26 -49 -31 0 -20
130 51 148 81 17 27 0 24 -27 -5z"/>
<path d="M4602 843 c-7 -12 -12 -31 -12 -42 0 -11 -9 -28 -19 -38 -44 -41 -92
-213 -60 -213 10 0 14 14 15 43 1 23 12 69 25 102 l24 60 5 -50 5 -50 8 73 c4
41 12 83 18 94 6 10 9 24 6 31 -2 7 -9 3 -15 -10z"/>
<path d="M3857 829 c13 -13 103 -40 103 -31 0 7 -89 42 -106 42 -4 0 -3 -5 3
-11z"/>
<path d="M3940 832 c0 -15 29 -23 105 -29 70 -5 125 7 125 27 0 6 -5 8 -11 4
-36 -22 -129 -21 -199 1 -11 4 -20 2 -20 -3z"/>
<path d="M3557 773 c-4 -3 -7 -11 -7 -17 0 -6 5 -5 12 2 6 6 9 14 7 17 -3 3
-9 2 -12 -2z"/>
<path d="M3595 741 c-3 -5 -19 -12 -35 -16 -31 -7 -42 -25 -14 -25 19 0 74 31
74 42 0 11 -18 10 -25 -1z"/>
<path d="M4510 710 c-12 -23 -19 -45 -16 -48 7 -7 7 -6 29 42 24 53 14 58 -13
6z"/>
<path d="M3632 684 c-29 -20 -73 -34 -142 -44 l-55 -7 60 -2 c45 0 74 6 113
24 28 13 52 29 52 35 0 13 -1 13 -28 -6z"/>
<path d="M3671 656 c-16 -19 -134 -66 -167 -66 -14 0 -23 -4 -20 -9 13 -20
182 39 201 70 11 17 -1 21 -14 5z"/>
<path d="M4457 643 c-11 -10 -8 -83 3 -83 6 0 10 20 10 45 0 46 -2 50 -13 38z"/>
<path d="M3660 615 c-40 -28 -174 -65 -232 -65 -24 0 -37 -4 -33 -10 9 -15
108 -1 195 27 41 14 82 26 90 28 8 1 14 8 13 14 -2 6 2 11 7 11 6 0 10 5 10
10 0 15 -11 11 -50 -15z"/>
<path d="M4427 633 c-13 -12 -7 -134 8 -170 8 -20 18 -34 21 -30 3 3 0 16 -7
29 -8 13 -13 55 -13 101 0 42 0 77 -1 77 -1 0 -5 -3 -8 -7z"/>
<path d="M4384 598 c-14 -63 -4 -168 16 -168 4 0 3 19 -2 43 -9 41 -6 105 8
140 3 9 2 17 -4 17 -6 0 -14 -15 -18 -32z"/>
<path d="M3648 563 c-12 -12 -24 -20 -28 -18 -5 3 -24 -2 -44 -10 -44 -19
-160 -21 -230 -5 -64 14 -71 6 -9 -13 l48 -15 -40 -3 c-22 -1 -48 -2 -57 -1
-10 1 -18 -3 -18 -8 0 -12 72 -13 123 -1 20 5 37 8 37 6 0 -1 -18 -15 -40 -30
-22 -15 -40 -32 -40 -37 0 -5 19 4 43 20 23 16 50 32 61 35 18 7 18 6 2 -18
-23 -35 -10 -31 35 10 22 19 44 35 49 35 13 0 13 -17 0 -25 -5 -3 -10 -13 -10
-22 0 -9 16 2 40 28 21 24 39 39 40 33 0 -6 -7 -17 -15 -24 -8 -7 -15 -22 -15
-34 1 -21 1 -21 12 -1 19 36 62 76 101 96 45 24 46 29 6 26 -16 -1 -40 -12
-51 -24z"/>
<path d="M3719 548 c-38 -10 -75 -38 -102 -78 -30 -43 -18 -45 18 -3 22 26 53
48 83 59 80 29 81 44 1 22z"/>
<path d="M4321 520 c-18 -22 -45 -43 -59 -46 -15 -3 -38 -10 -52 -15 -20 -7
-16 -8 19 -5 24 3 56 14 72 25 l27 20 6 -34 c9 -45 23 -45 18 0 -2 19 1 48 6
65 15 41 3 38 -37 -10z"/>
<path d="M3780 533 c-62 -18 -120 -44 -120 -55 0 -12 6 -10 50 12 63 32 68 23
15 -30 -27 -27 -46 -50 -41 -50 4 0 33 23 63 50 30 28 60 50 68 50 7 0 18 6
24 14 18 21 -6 25 -59 9z"/>
<path d="M3900 523 c-8 -3 -29 -11 -47 -19 -17 -8 -34 -14 -38 -14 -4 0 -18
-9 -32 -20 -14 -11 -22 -20 -18 -20 5 0 16 6 24 13 17 14 91 43 126 49 11 2
16 6 10 9 -5 4 -17 4 -25 2z"/>
<path d="M3980 504 c-65 -13 -152 -52 -145 -65 3 -3 27 5 55 18 28 13 73 27
101 30 43 5 69 17 58 27 -2 2 -33 -3 -69 -10z"/>
<path d="M4215 499 c-16 -5 -50 -11 -75 -14 -44 -5 -118 -41 -107 -51 3 -3 22
3 44 14 21 11 66 23 101 27 34 4 65 11 68 17 9 14 2 16 -31 7z"/>
<path d="M4010 472 c-51 -28 -48 -42 5 -18 25 12 45 24 45 29 0 11 -13 8 -50
-11z"/>
</g>
</svg>
