<svg width="192" height="192" viewBox="0 0 192 192" fill="none" xmlns="http://www.w3.org/2000/svg">
<path fill-rule="evenodd" clip-rule="evenodd" d="M96 192C149.019 192 192 149.019 192 96C192 42.9807 149.019 0 96 0C42.9807 0 0 42.9807 0 96C0 149.019 42.9807 192 96 192ZM122.501 109.895C125.996 111.923 129.934 113.098 133.986 113.319L134.064 113.091C143.91 113.091 151.662 105.472 151.662 94.0442C151.662 82.6162 144.065 74.9975 134.064 74.9975C124.063 74.9975 116.504 81.321 113.906 101.663C116.06 105.043 119.007 107.866 122.501 109.895ZM114.474 68.3925C120.072 64.1588 127.006 61.9932 134.064 62.2743L133.986 62.3886C138.205 62.3517 142.389 63.1487 146.288 64.7323C150.187 66.3159 153.723 68.6537 156.685 71.6067C159.646 74.5598 161.973 78.0678 163.528 81.9223C165.083 85.7768 165.833 89.8991 165.734 94.0442C165.87 98.2046 165.148 102.349 163.612 106.228C162.075 110.107 159.756 113.641 156.794 116.616C153.831 119.591 150.287 121.946 146.374 123.54C142.461 125.134 138.26 125.934 134.025 125.89H132.707C127.013 125.687 121.476 124.004 116.659 121.014C114.805 119.879 113.042 118.606 111.387 117.205L106.386 147.375H91.9661L99.5639 104.787C93.0788 95.4408 88.2795 85.0675 85.3763 74.1213V94.4632C85.3763 112.939 73.3982 125.852 56.3034 125.852C52.281 125.953 48.2832 125.206 44.579 123.662C40.8748 122.118 37.5499 119.812 34.8282 116.9C29.252 110.606 26.327 102.46 26.649 94.1204V64.0266H40.8366V94.1204C40.8366 105.091 46.4574 113.167 56.3421 113.167C66.2269 113.167 71.2662 105.053 71.2662 94.1204V64.0266H95.9588C97.6119 71.4203 100.122 78.6033 103.44 85.4351C104.971 78.6585 108.876 72.6261 114.474 68.3925Z" fill="black"/>
</svg>
